<svg width="136" height="95" viewBox="0 0 136 95" fill="none" xmlns="http://www.w3.org/2000/svg">
<path d="M111.335 28.3798C107.206 18.9015 100.082 11.0391 91.0563 5.99788C82.0301 0.956709 71.5996 -0.984899 61.364 0.470759C51.1284 1.92642 41.6528 6.69898 34.3899 14.0567C27.127 21.4145 22.4778 30.9512 21.1551 41.2048C14.7195 42.746 9.07405 46.597 5.29078 52.0264C1.50752 57.4558 -0.15008 64.0855 0.632783 70.6565C1.41564 77.2276 4.58444 83.2823 9.53741 87.6709C14.4904 92.0595 20.8826 94.4763 27.5001 94.4623H101.75C109.846 94.44 117.664 91.5084 123.778 86.2023C129.892 80.8961 133.895 73.5689 135.058 65.5571C136.22 57.5452 134.463 49.3826 130.108 42.5579C125.754 35.7333 119.091 30.7013 111.335 28.3798ZM101.75 80.9623H27.5001C23.9196 80.9623 20.4859 79.54 17.9541 77.0083C15.4224 74.4765 14.0001 71.0427 14.0001 67.4623C14.0001 63.8819 15.4224 60.4481 17.9541 57.9164C20.4859 55.3846 23.9196 53.9623 27.5001 53.9623C29.2903 53.9623 31.0072 53.2512 32.273 51.9853C33.5389 50.7194 34.2501 49.0025 34.2501 47.2123C34.2673 39.229 37.114 31.5102 42.2844 25.4273C47.4548 19.3444 54.6141 15.2912 62.4904 13.988C70.3667 12.6847 78.4499 14.2157 85.3041 18.3089C92.1583 22.4021 97.3397 28.7925 99.9276 36.3448C100.324 37.4922 101.022 38.5115 101.948 39.2955C102.875 40.0795 103.995 40.5992 105.193 40.7998C110.14 41.7128 114.571 44.4349 117.621 48.4359C120.672 52.4369 122.124 57.4302 121.694 62.443C121.264 67.4559 118.984 72.1293 115.297 75.5528C111.61 78.9763 106.781 80.9047 101.75 80.9623Z" fill="white"/>
</svg>
