<svg width="30" height="30" viewBox="0 0 30 30" fill="none" xmlns="http://www.w3.org/2000/svg">
<path d="M4.37 15.62C4.37 15.38 4.45 15.18 4.62 15.01C4.8 14.84 5 14.76 5.22 14.76H7.26C7.49 14.76 7.68 14.84 7.84 15.01C7.99 15.18 8.06999 15.38 8.06999 15.62C8.06999 15.86 7.99 16.06 7.84 16.22C7.69 16.39 7.49 16.47 7.26 16.47H5.23C5 16.47 4.8 16.39 4.63 16.22C4.46 16.05 4.37 15.85 4.37 15.62ZM7.23 8.71C7.23 8.48 7.31 8.28 7.46 8.1C7.66 7.93 7.87 7.85 8.1 7.85C8.31 7.85 8.50999 7.93 8.68999 8.1L10.12 9.56C10.28 9.71 10.36 9.91 10.36 10.15C10.36 10.39 10.28 10.59 10.12 10.75C9.96 10.91 9.76 10.99 9.52 10.99C9.28 10.99 9.08 10.91 8.93 10.75L7.47 9.32C7.31 9.15 7.23 8.95 7.23 8.71ZM7.39 18.02C7.39 17.8 7.47 17.61 7.62 17.47C7.78 17.33 7.99 17.25 8.26 17.25H13.97C14.24 17.25 14.45 17.32 14.61 17.47C14.77 17.61 14.85 17.8 14.85 18.02C14.85 18.29 14.77 18.5 14.62 18.66C14.46 18.82 14.25 18.9 13.97 18.9H8.26C7.99 18.9 7.78 18.82 7.62 18.67C7.46 18.52 7.39 18.29 7.39 18.02ZM8.38 20.97C8.38 20.75 8.47 20.55 8.66 20.37C8.84 20.19 9.05 20.1 9.26 20.1C9.52 20.1 9.73 20.19 9.89 20.36C10.05 20.54 10.13 20.74 10.13 20.97C10.13 21.25 10.05 21.46 9.89999 21.62C9.74999 21.78 9.53 21.85 9.26 21.85C9.03 21.85 8.81999 21.77 8.64999 21.61C8.46999 21.45 8.38 21.23 8.38 20.97ZM9.79 15.91V15.84C9.82 14.58 10.26 13.49 11.1 12.56C11.94 11.63 12.97 11.07 14.2 10.87H14.25C14.44 10.83 14.7 10.81 15.01 10.81C15.32 10.81 15.58 10.83 15.77 10.87H15.81C17.03 11.06 18.07 11.63 18.91 12.56C19.75 13.49 20.19 14.58 20.22 15.84V15.91C20.22 16.07 20.14 16.15 19.99 16.15H18.86C18.74 16.15 18.66 16.12 18.61 16.06C18.56 16 18.54 15.94 18.54 15.88C18.5 14.95 18.14 14.16 17.46 13.51C16.78 12.86 15.97 12.54 15.02 12.54C14.07 12.54 13.26 12.86 12.58 13.51C11.9 14.16 11.54 14.95 11.5 15.88C11.5 15.94 11.47 16 11.42 16.06C11.37 16.12 11.28 16.15 11.16 16.15H10.03C9.86999 16.15 9.79 16.07 9.79 15.91ZM10.8 20.97C10.8 20.74 10.88 20.54 11.04 20.36C11.2 20.19 11.41 20.1 11.67 20.1H15.5C15.72 20.1 15.92 20.19 16.1 20.37C16.28 20.55 16.38 20.75 16.38 20.97C16.38 21.23 16.29 21.45 16.11 21.61C15.93 21.77 15.73 21.85 15.5 21.85H11.67C11.4 21.85 11.19 21.77 11.03 21.62C10.87 21.46 10.8 21.25 10.8 20.97ZM14.14 7.89V5.86C14.14 5.62 14.22 5.42 14.39 5.25C14.56 5.08 14.76 5 15 5C15.24 5 15.43 5.08 15.6 5.25C15.77 5.42 15.85 5.62 15.85 5.86V7.89C15.85 8.12 15.77 8.32 15.6 8.47C15.43 8.62 15.23 8.71 15 8.71C14.77 8.71 14.56 8.63 14.4 8.48C14.24 8.33 14.14 8.12 14.14 7.89ZM15.5 18.02C15.5 17.81 15.59 17.63 15.77 17.48C15.95 17.33 16.15 17.25 16.38 17.25C16.61 17.25 16.81 17.33 16.99 17.48C17.17 17.63 17.26 17.81 17.26 18.02C17.26 18.28 17.17 18.5 16.99 18.66C16.81 18.82 16.61 18.9 16.38 18.9C16.15 18.9 15.94 18.82 15.77 18.66C15.59 18.49 15.5 18.28 15.5 18.02ZM17.04 20.97C17.04 20.74 17.12 20.54 17.28 20.36C17.44 20.19 17.66 20.1 17.92 20.1H19.78C20.04 20.1 20.25 20.19 20.41 20.36C20.57 20.54 20.65 20.74 20.65 20.97C20.65 21.25 20.57 21.46 20.42 21.62C20.27 21.78 20.05 21.85 19.78 21.85H17.92C17.65 21.85 17.44 21.77 17.28 21.62C17.12 21.46 17.04 21.25 17.04 20.97ZM17.92 18.02C17.92 17.81 18.01 17.63 18.19 17.48C18.37 17.33 18.57 17.25 18.79 17.25H21.86C22.08 17.25 22.26 17.32 22.4 17.47C22.54 17.62 22.62 17.8 22.62 18.02C22.62 18.29 22.55 18.5 22.41 18.66C22.27 18.82 22.09 18.9 21.86 18.9H18.79C18.56 18.9 18.36 18.82 18.18 18.66C18.01 18.49 17.92 18.28 17.92 18.02ZM19.66 10.15C19.66 9.9 19.74 9.7 19.89 9.56L21.31 8.1C21.49 7.93 21.69 7.85 21.9 7.85C22.13 7.85 22.33 7.93 22.5 8.1C22.67 8.27 22.75 8.47 22.75 8.71C22.75 8.95 22.67 9.16 22.51 9.32L21.05 10.74C20.87 10.9 20.67 10.98 20.45 10.98C20.22 10.98 20.04 10.9 19.89 10.74C19.74 10.59 19.66 10.39 19.66 10.15ZM21.92 15.62C21.92 15.39 22 15.19 22.16 15.01C22.33 14.84 22.52 14.76 22.73 14.76H24.75C24.98 14.76 25.18 14.85 25.35 15.02C25.52 15.19 25.61 15.39 25.61 15.62C25.61 15.85 25.52 16.05 25.35 16.22C25.18 16.39 24.98 16.47 24.75 16.47H22.73C22.5 16.47 22.3 16.39 22.15 16.22C22 16.05 21.92 15.86 21.92 15.62Z" fill="white"/>
</svg>
