<svg width="20" height="20" viewBox="0 0 20 20" fill="none" xmlns="http://www.w3.org/2000/svg">
<path d="M6.5 15.024H13.5C13.6249 15.0238 13.7454 15.0703 13.8378 15.1545C13.9301 15.2387 13.9876 15.3544 13.9989 15.4788C14.0102 15.6032 13.9745 15.7274 13.8988 15.8268C13.8231 15.9262 13.7129 15.9937 13.59 16.016L13.5 16.024H6.5C6.37505 16.0242 6.25455 15.9777 6.16222 15.8935C6.06988 15.8093 6.01241 15.6936 6.00112 15.5692C5.98984 15.4447 6.02554 15.3206 6.10122 15.2212C6.1769 15.1217 6.28705 15.0542 6.41 15.032L6.5 15.024V15.024ZM4.504 13.024H15.496C15.774 13.024 16 13.248 16 13.524C16 13.77 15.822 13.974 15.587 14.016L15.497 14.024H4.503C4.43708 14.0242 4.37175 14.0115 4.31074 13.9865C4.24973 13.9616 4.19425 13.9248 4.14745 13.8784C4.10064 13.8319 4.06345 13.7767 4.03798 13.7159C4.01251 13.6551 3.99926 13.5899 3.999 13.524C3.999 13.279 4.177 13.074 4.412 13.033L4.502 13.024H4.504ZM10 3.02399C12.465 3.02399 13.863 4.59799 14.066 6.49799H14.128C15.714 6.49799 17 7.73499 17 9.26099C17 10.787 15.714 12.024 14.128 12.024H5.872C4.286 12.024 3 10.787 3 9.26099C3 7.79199 4.192 6.59099 5.697 6.50299L5.934 6.49799C6.139 4.58599 7.535 3.02399 10 3.02399V3.02399ZM10 4.02399C8.35 4.02399 6.913 5.29399 6.913 7.04899C6.913 7.32699 6.659 7.54599 6.368 7.54599H5.818C4.814 7.54599 4 8.32399 4 9.28499C4 10.245 4.814 11.025 5.818 11.025H14.182C15.186 11.025 16 10.245 16 9.28499C16 8.32499 15.186 7.54499 14.182 7.54499H13.632C13.342 7.54499 13.087 7.32699 13.087 7.04899C13.087 5.27199 11.649 4.02399 10 4.02399Z" fill="white"/>
</svg>
