<svg width="20" height="20" viewBox="0 0 20 20" fill="none" xmlns="http://www.w3.org/2000/svg">
<path d="M10 4C12.465 4 13.863 5.574 14.066 7.474H14.128C15.714 7.474 17 8.711 17 10.237C17 11.763 15.714 13 14.128 13L13.425 12.999L13.412 13.033L11.929 15.737C11.8694 15.8468 11.7708 15.9304 11.6527 15.9711C11.5346 16.0119 11.4054 16.007 11.2908 15.9573C11.1761 15.9076 11.0842 15.8168 11.0331 15.7027C10.9821 15.5887 10.9756 15.4596 11.015 15.341L11.051 15.258L12.29 13H10.437L10.423 13.034L8.94 15.738C8.88039 15.8478 8.78181 15.9314 8.66368 15.9721C8.54555 16.0129 8.41644 16.008 8.30177 15.9583C8.1871 15.9086 8.09519 15.8178 8.04415 15.7037C7.99311 15.5897 7.98663 15.4606 8.026 15.342L8.062 15.259L9.301 13H7.432L5.94 15.737C5.88392 15.8395 5.7937 15.9192 5.685 15.9621C5.57631 16.005 5.45601 16.0085 5.345 15.972L5.262 15.936C5.15929 15.8801 5.07943 15.7899 5.03631 15.6812C4.99319 15.5725 4.98954 15.4521 5.026 15.341L5.062 15.258L6.293 13H5.872C4.286 13 3 11.763 3 10.237C3 8.767 4.192 7.566 5.697 7.479L5.934 7.474C6.139 5.561 7.535 4 10 4ZM10 5C8.35 5 6.913 6.27 6.913 8.025C6.913 8.303 6.659 8.521 6.368 8.521H5.818C4.814 8.521 4 9.3 4 10.261C4 11.22 4.814 12 5.818 12H14.182C15.186 12 16 11.221 16 10.26C16 9.3 15.186 8.521 14.182 8.521H13.632C13.342 8.521 13.087 8.303 13.087 8.025C13.087 6.248 11.65 5 10 5Z" fill="white"/>
</svg>
