<svg width="30" height="30" viewBox="0 0 30 30" fill="none" xmlns="http://www.w3.org/2000/svg">
<path d="M6.33997 12.48C6.33997 11.54 6.63997 10.7 7.22997 9.96C7.81997 9.22 8.56997 8.75 9.47997 8.55C9.72997 7.43 10.3 6.5 11.2 5.78C12.1 5.06 13.12 4.7 14.28 4.7C15.4 4.7 16.41 5.05 17.3 5.75C18.19 6.45 18.76 7.35 19.03 8.44H19.3C20.42 8.44 21.38 8.83 22.18 9.62C22.97 10.4 23.37 11.36 23.37 12.47C23.37 13.07 23.25 13.64 23 14.17C22.75 14.7 22.41 15.16 21.97 15.54V15.57C21.97 16.16 21.78 16.69 21.41 17.16C21.04 17.63 20.57 17.92 20.01 18.05C19.87 18.67 19.56 19.2 19.1 19.63C18.64 20.06 18.09 20.33 17.47 20.43C17.76 20.77 17.9 21.15 17.9 21.56C17.9 22.04 17.73 22.45 17.39 22.8C17.05 23.14 16.64 23.32 16.16 23.32C15.68 23.32 15.27 23.15 14.93 22.8C14.59 22.46 14.42 22.04 14.42 21.56C14.42 21.37 14.45 21.18 14.52 20.99H14.42C13.84 20.99 13.34 20.78 12.92 20.36C12.5 19.94 12.29 19.44 12.29 18.86C12.29 18.46 12.39 18.1 12.59 17.79C12.07 17.5 11.7 17.09 11.47 16.54H10.19V16.53C9.11997 16.46 8.20997 16.04 7.45997 15.26C6.70997 14.48 6.33997 13.56 6.33997 12.48ZM7.73997 12.23C7.73997 13.03 8.01997 13.71 8.57997 14.27C9.13997 14.83 9.81997 15.11 10.61 15.11C11.1 15.11 11.56 15 11.98 14.77C12.1 15.51 12.45 16.13 13.02 16.63C13.59 17.13 14.27 17.37 15.04 17.37C15.91 17.37 16.65 17.06 17.26 16.45C17.67 16.93 18.18 17.16 18.8 17.16C19.37 17.16 19.85 16.96 20.26 16.56C20.66 16.16 20.86 15.67 20.86 15.1C21.26 14.83 21.58 14.49 21.81 14.06C22.04 13.64 22.16 13.18 22.16 12.69C22.16 11.9 21.88 11.22 21.31 10.67C20.74 10.12 20.06 9.84 19.26 9.84C18.7 9.84 18.19 9.99 17.73 10.28C17.79 10.04 17.81 9.77 17.81 9.49C17.81 8.53 17.47 7.71 16.78 7.03C16.09 6.35 15.26 6.02 14.29 6.02C13.35 6.02 12.54 6.35 11.86 6.99C11.18 7.63 10.82 8.43 10.79 9.36C10.77 9.36 10.74 9.36 10.71 9.36C10.67 9.36 10.64 9.36 10.62 9.36C9.82997 9.36 9.15997 9.64 8.58997 10.2C8.01997 10.76 7.73997 11.45 7.73997 12.23Z" fill="white"/>
</svg>
