<svg width="32" height="32" viewBox="0 0 32 32" fill="none" xmlns="http://www.w3.org/2000/svg">
<path d="M16 2C16.2652 2 16.5196 2.10536 16.7071 2.29289C16.8946 2.48043 17 2.73478 17 3V5C17 5.26522 16.8946 5.51957 16.7071 5.70711C16.5196 5.89464 16.2652 6 16 6C15.7348 6 15.4804 5.89464 15.2929 5.70711C15.1054 5.51957 15 5.26522 15 5V3C15 2.73478 15.1054 2.48043 15.2929 2.29289C15.4804 2.10536 15.7348 2 16 2V2ZM16 23C17.8565 23 19.637 22.2625 20.9497 20.9497C22.2625 19.637 23 17.8565 23 16C23 14.1435 22.2625 12.363 20.9497 11.0503C19.637 9.7375 17.8565 9 16 9C14.1435 9 12.363 9.7375 11.0503 11.0503C9.7375 12.363 9 14.1435 9 16C9 17.8565 9.7375 19.637 11.0503 20.9497C12.363 22.2625 14.1435 23 16 23V23ZM16 21C14.6739 21 13.4021 20.4732 12.4645 19.5355C11.5268 18.5979 11 17.3261 11 16C11 14.6739 11.5268 13.4021 12.4645 12.4645C13.4021 11.5268 14.6739 11 16 11C17.3261 11 18.5979 11.5268 19.5355 12.4645C20.4732 13.4021 21 14.6739 21 16C21 17.3261 20.4732 18.5979 19.5355 19.5355C18.5979 20.4732 17.3261 21 16 21ZM29 17C29.2652 17 29.5196 16.8946 29.7071 16.7071C29.8946 16.5196 30 16.2652 30 16C30 15.7348 29.8946 15.4804 29.7071 15.2929C29.5196 15.1054 29.2652 15 29 15H27C26.7348 15 26.4804 15.1054 26.2929 15.2929C26.1054 15.4804 26 15.7348 26 16C26 16.2652 26.1054 16.5196 26.2929 16.7071C26.4804 16.8946 26.7348 17 27 17H29ZM16 26C16.2652 26 16.5196 26.1054 16.7071 26.2929C16.8946 26.4804 17 26.7348 17 27V29C17 29.2652 16.8946 29.5196 16.7071 29.7071C16.5196 29.8946 16.2652 30 16 30C15.7348 30 15.4804 29.8946 15.2929 29.7071C15.1054 29.5196 15 29.2652 15 29V27C15 26.7348 15.1054 26.4804 15.2929 26.2929C15.4804 26.1054 15.7348 26 16 26V26ZM5 17C5.26522 17 5.51957 16.8946 5.70711 16.7071C5.89464 16.5196 6 16.2652 6 16C6 15.7348 5.89464 15.4804 5.70711 15.2929C5.51957 15.1054 5.26522 15 5 15H3C2.73478 15 2.48043 15.1054 2.29289 15.2929C2.10536 15.4804 2 15.7348 2 16C2 16.2652 2.10536 16.5196 2.29289 16.7071C2.48043 16.8946 2.73478 17 3 17H5ZM5.294 5.294C5.48153 5.10653 5.73584 5.00121 6.001 5.00121C6.26616 5.00121 6.52047 5.10653 6.708 5.294L8.708 7.294C8.89016 7.4826 8.99095 7.7352 8.98867 7.9974C8.9864 8.2596 8.88123 8.51041 8.69582 8.69582C8.51041 8.88123 8.2596 8.9864 7.9974 8.98867C7.7352 8.99095 7.4826 8.89016 7.294 8.708L5.294 6.708C5.10653 6.52047 5.00121 6.26616 5.00121 6.001C5.00121 5.73584 5.10653 5.48153 5.294 5.294V5.294ZM6.708 26.708C6.5194 26.8902 6.2668 26.991 6.0046 26.9887C5.7424 26.9864 5.49159 26.8812 5.30618 26.6958C5.12077 26.5104 5.0156 26.2596 5.01333 25.9974C5.01105 25.7352 5.11184 25.4826 5.294 25.294L7.294 23.294C7.38625 23.1985 7.49659 23.1223 7.6186 23.0699C7.7406 23.0175 7.87182 22.9899 8.0046 22.9888C8.13738 22.9876 8.26906 23.0129 8.39195 23.0632C8.51485 23.1135 8.6265 23.1877 8.7204 23.2816C8.81429 23.3755 8.88854 23.4872 8.93882 23.61C8.9891 23.7329 9.0144 23.8646 9.01325 23.9974C9.0121 24.1302 8.98451 24.2614 8.9321 24.3834C8.87969 24.5054 8.80351 24.6158 8.708 24.708L6.708 26.708V26.708ZM26.708 5.294C26.5205 5.10653 26.2662 5.00121 26.001 5.00121C25.7358 5.00121 25.4815 5.10653 25.294 5.294L23.294 7.294C23.1118 7.4826 23.011 7.7352 23.0133 7.9974C23.0156 8.2596 23.1208 8.51041 23.3062 8.69582C23.4916 8.88123 23.7424 8.9864 24.0046 8.98867C24.2668 8.99095 24.5194 8.89016 24.708 8.708L26.708 6.708C26.8955 6.52047 27.0008 6.26616 27.0008 6.001C27.0008 5.73584 26.8955 5.48153 26.708 5.294V5.294ZM25.294 26.708C25.4826 26.8902 25.7352 26.991 25.9974 26.9887C26.2596 26.9864 26.5104 26.8812 26.6958 26.6958C26.8812 26.5104 26.9864 26.2596 26.9887 25.9974C26.991 25.7352 26.8902 25.4826 26.708 25.294L24.708 23.294C24.6158 23.1985 24.5054 23.1223 24.3834 23.0699C24.2614 23.0175 24.1302 22.9899 23.9974 22.9888C23.8646 22.9876 23.7329 23.0129 23.61 23.0632C23.4872 23.1135 23.3755 23.1877 23.2816 23.2816C23.1877 23.3755 23.1135 23.4872 23.0632 23.61C23.0129 23.7329 22.9876 23.8646 22.9888 23.9974C22.9899 24.1302 23.0175 24.2614 23.0699 24.3834C23.1223 24.5054 23.1985 24.6158 23.294 24.708L25.294 26.708Z" fill="white"/>
</svg>
