<svg width="78" height="34" viewBox="0 0 78 34" fill="none" xmlns="http://www.w3.org/2000/svg">
<path d="M65.4495 5.44001C66.3699 4.60731 67.5853 4.17224 68.8282 4.23053C70.0712 4.28881 71.2399 4.83565 72.0773 5.75078C72.9148 6.6659 73.3524 7.87433 73.2938 9.11023C73.2352 10.3462 72.6852 11.5083 71.7648 12.3409L62.511 20.7136C62.6663 22.3381 62.3036 23.97 61.4743 25.3782C60.6449 26.7865 59.391 27.8996 57.8902 28.5598C56.3892 29.22 54.7175 29.3939 53.1117 29.057C51.5058 28.72 50.0473 27.8892 48.9427 26.6822C47.8382 25.4752 47.1435 23.9533 46.9573 22.3319C46.771 20.7106 47.1025 19.072 47.9048 17.6484C48.7071 16.2248 49.9396 15.0883 51.4275 14.3998C52.9155 13.7114 54.5837 13.5059 56.1957 13.8125L65.4495 5.44001ZM69.764 7.84392C69.4848 7.53888 69.0951 7.35659 68.6809 7.33717C68.2666 7.31774 67.8614 7.46276 67.5547 7.74033L57.682 16.6728C57.4789 16.8565 57.2308 16.9838 56.9626 17.042C56.6944 17.1001 56.4155 17.087 56.1539 17.0041C55.1699 16.6917 54.1099 16.7108 53.138 17.0586C52.1661 17.4063 51.3367 18.0632 50.7787 18.9275C50.2206 19.7917 49.9649 20.8148 50.0513 21.8382C50.1377 22.8617 50.5613 23.8281 51.2564 24.5878C51.9516 25.3474 52.8795 25.8577 53.8961 26.0395C54.9127 26.2213 55.9611 26.0646 56.879 25.5934C57.7968 25.1223 58.5326 24.3632 58.9722 23.4338C59.4118 22.5044 59.5308 21.4568 59.3105 20.4534C59.2524 20.1868 59.2658 19.9096 59.3495 19.6498C59.4331 19.39 59.584 19.1566 59.787 18.9731L69.6597 10.0406C69.9665 9.76308 70.1499 9.37571 70.1693 8.96373C70.1889 8.55177 70.0431 8.14896 69.764 7.84392Z" fill="#5F5F5F"/>
<path d="M0.351929 29.9886L3.64713 14.4864H8.08337C9.9958 14.4864 11.5029 14.9847 12.6049 15.9814C13.7069 16.9782 14.2579 18.4344 14.2579 20.3501C14.2579 21.5518 14.1263 22.6545 13.8633 23.6583C13.6074 24.6621 13.2306 25.5564 12.7329 26.3411C12.2352 27.1256 11.6239 27.7901 10.8987 28.3345C10.1806 28.8717 9.35951 29.2817 8.43529 29.5644C7.51107 29.8473 6.49087 29.9886 5.3747 29.9886H0.351929ZM5.26806 26.5531H6.00388C6.48021 26.5531 6.92454 26.4612 7.33689 26.2774C7.75635 26.0936 8.12958 25.8286 8.45662 25.4822C8.79076 25.1287 9.07513 24.7081 9.30974 24.2204C9.55146 23.7255 9.73275 23.1706 9.85361 22.5556C9.98158 21.9406 10.0456 21.2761 10.0456 20.5622C10.0456 19.6785 9.85361 19.0105 9.4697 18.5581C9.0858 18.0986 8.54903 17.8689 7.85943 17.8689H7.10228L5.26806 26.5531ZM13.6607 29.9886L21.5948 14.4864H26.9588L28.2704 29.9886H24.2075L24.1008 27.0832H19.3233L17.9902 29.9886H13.6607ZM20.8483 23.775H23.9728L23.8129 19.3216C23.8057 18.9751 23.7986 18.6323 23.7916 18.293C23.7844 17.9537 23.7844 17.6321 23.7916 17.328H23.7275C23.6209 17.6533 23.5036 17.9713 23.3757 18.2824C23.2548 18.5935 23.1197 18.9115 22.9704 19.2367L20.8483 23.775Z" fill="#CFFFF6"/>
<path d="M43.9786 13.8916L41.7848 22.75H38.939L38.0859 18.8904C38.0697 18.8177 38.0433 18.6944 38.0067 18.5208C37.9742 18.347 37.9357 18.1491 37.8909 17.9269C37.8503 17.7048 37.8117 17.4867 37.7752 17.2725C37.7426 17.0544 37.7183 16.8707 37.7021 16.7211C37.6857 16.8707 37.6593 17.0544 37.6228 17.2725C37.5862 17.4867 37.5457 17.7048 37.5009 17.9269C37.4603 18.1491 37.4197 18.347 37.379 18.5208C37.3424 18.6944 37.3161 18.8177 37.2998 18.8904L36.4407 22.75H33.5948L31.3889 13.8916H33.7107L34.6795 18.3329C34.7039 18.442 34.7364 18.5975 34.7771 18.7995C34.8217 18.9974 34.8664 19.2155 34.9111 19.4538C34.9598 19.6882 35.0045 19.9143 35.0452 20.1325C35.0857 20.3506 35.1142 20.5324 35.1305 20.6778C35.1629 20.4273 35.2057 20.1425 35.2584 19.8234C35.3153 19.5043 35.3762 19.1811 35.4412 18.854C35.5103 18.5227 35.5753 18.2157 35.6362 17.933C35.6972 17.6503 35.75 17.42 35.7947 17.2422L36.5807 13.8916H38.8111L39.5728 17.2422C39.6134 17.416 39.6642 17.6462 39.7252 17.933C39.7902 18.2157 39.8552 18.5227 39.9202 18.854C39.9892 19.1852 40.0522 19.5124 40.109 19.8355C40.1659 20.1546 40.2086 20.4354 40.2371 20.6778C40.2614 20.4758 40.3021 20.2213 40.3589 19.9143C40.4157 19.6033 40.4726 19.3023 40.5295 19.0116C40.5905 18.7166 40.6372 18.4945 40.6697 18.345L41.6569 13.8916H43.9786ZM50.4197 22.75H45.1303V13.8916H50.4197V15.8123H47.5373V17.2059H50.2064V19.1266H47.5373V20.799H50.4197V22.75ZM57.4457 22.75L57.0071 21.0898H54.1124L53.6616 22.75H51.0169L53.9236 13.8552H57.135L60.0783 22.75H57.4457ZM56.5073 19.1266L56.1234 17.6724C56.0828 17.5149 56.0238 17.2907 55.9467 16.9999C55.8695 16.705 55.7923 16.402 55.7152 16.091C55.6421 15.776 55.5852 15.5175 55.5445 15.3154C55.5079 15.5175 55.4552 15.7678 55.3861 16.0668C55.3211 16.3617 55.2521 16.6546 55.1789 16.9453C55.1098 17.2362 55.0489 17.4785 54.9961 17.6724L54.6122 19.1266H56.5073ZM64.9776 22.75H62.5707V15.8487H60.3952V13.8916H67.1471V15.8487H64.9776V22.75Z" fill="white"/>
<path d="M37.9722 29.9886H36.3593V27.5812H34.4947V29.9886H32.8819V24.083H34.4947V26.2723H36.3593V24.083H37.9722V29.9886ZM43.119 29.9886H39.5928V24.083H43.119V25.3634H41.1975V26.2926H42.9769V27.5731H41.1975V28.6879H43.119V29.9886ZM46.4378 24.083C46.9767 24.083 47.4249 24.149 47.7825 24.281C48.1399 24.4102 48.4082 24.6041 48.5868 24.8626C48.7683 25.1212 48.859 25.443 48.859 25.8281C48.859 26.0677 48.8184 26.2859 48.7372 26.4824C48.6559 26.679 48.5395 26.8554 48.3878 27.0116C48.2388 27.165 48.0601 27.2997 47.8516 27.4155L49.5822 29.9886H47.7622L46.5028 27.8397H46.0966V29.9886H44.4918V24.083H46.4378ZM46.4134 25.2908H46.0966V26.6399H46.3972C46.6436 26.6399 46.8454 26.5861 47.0025 26.4784C47.1595 26.3707 47.2382 26.1781 47.2382 25.9008C47.2382 25.7096 47.1732 25.56 47.0432 25.4524C46.9132 25.3446 46.7032 25.2908 46.4134 25.2908Z" fill="#E4E4E4"/>
</svg>
