<svg width="588" height="559" viewBox="0 0 588 559" fill="none" xmlns="http://www.w3.org/2000/svg">
<path d="M518 505L526.66 490L509.34 490L518 505ZM516.5 280L516.5 491.5L519.5 491.5L519.5 280L516.5 280Z" fill="#D3D3D3"/>
<path d="M25.1147 389.5L68.6147 414.615L25.1147 439.729L25.1147 389.5Z" fill="#454647"/>
<circle cx="556.5" cy="110.5" r="31.5" fill="#454647"/>
<g opacity="0.95">
<rect x="129" width="363" height="173" rx="20" fill="#494A4B"/>
<path fill-rule="evenodd" clip-rule="evenodd" d="M159 40.5C159 37.7152 160.106 35.0445 162.075 33.0754C164.045 31.1062 166.715 30 169.5 30C172.285 30 174.955 31.1062 176.925 33.0754C178.894 35.0445 180 37.7152 180 40.5C180 43.2848 178.894 45.9555 176.925 47.9246C174.955 49.8938 172.285 51 169.5 51C166.715 51 164.045 49.8938 162.075 47.9246C160.106 45.9555 159 43.2848 159 40.5V40.5ZM168.901 44.994L174.946 37.4368L173.854 36.5632L168.699 43.0046L165.048 39.9624L164.152 41.0376L168.901 44.9954V44.994Z" fill="#B1FFF1"/>
<path d="M201.5 33.96C202.98 33.96 204.273 34.2533 205.38 34.84C206.487 35.4267 207.34 36.2533 207.94 37.32C208.553 38.3733 208.86 39.5933 208.86 40.98C208.86 42.3533 208.553 43.5733 207.94 44.64C207.34 45.7067 206.48 46.5333 205.36 47.12C204.253 47.7067 202.967 48 201.5 48H196.24V33.96H201.5ZM201.28 45.04C202.573 45.04 203.58 44.6867 204.3 43.98C205.02 43.2733 205.38 42.2733 205.38 40.98C205.38 39.6867 205.02 38.68 204.3 37.96C203.58 37.24 202.573 36.88 201.28 36.88H199.66V45.04H201.28ZM221.291 42.24C221.291 42.56 221.271 42.8933 221.231 43.24H213.491C213.545 43.9333 213.765 44.4667 214.151 44.84C214.551 45.2 215.038 45.38 215.611 45.38C216.465 45.38 217.058 45.02 217.391 44.3H221.031C220.845 45.0333 220.505 45.6933 220.011 46.28C219.531 46.8667 218.925 47.3267 218.191 47.66C217.458 47.9933 216.638 48.16 215.731 48.16C214.638 48.16 213.665 47.9267 212.811 47.46C211.958 46.9933 211.291 46.3267 210.811 45.46C210.331 44.5933 210.091 43.58 210.091 42.42C210.091 41.26 210.325 40.2467 210.791 39.38C211.271 38.5133 211.938 37.8467 212.791 37.38C213.645 36.9133 214.625 36.68 215.731 36.68C216.811 36.68 217.771 36.9067 218.611 37.36C219.451 37.8133 220.105 38.46 220.571 39.3C221.051 40.14 221.291 41.12 221.291 42.24ZM217.791 41.34C217.791 40.7533 217.591 40.2867 217.191 39.94C216.791 39.5933 216.291 39.42 215.691 39.42C215.118 39.42 214.631 39.5867 214.231 39.92C213.845 40.2533 213.605 40.7267 213.511 41.34H217.791ZM226.515 33.2V48H223.095V33.2H226.515ZM235.854 36.72C237.134 36.72 238.161 37.1467 238.934 38C239.707 38.84 240.094 40 240.094 41.48V48H236.694V41.94C236.694 41.1933 236.501 40.6133 236.114 40.2C235.727 39.7867 235.207 39.58 234.554 39.58C233.901 39.58 233.381 39.7867 232.994 40.2C232.607 40.6133 232.414 41.1933 232.414 41.94V48H228.994V33.2H232.414V38.34C232.761 37.8467 233.234 37.4533 233.834 37.16C234.434 36.8667 235.107 36.72 235.854 36.72ZM244.19 35.68C243.59 35.68 243.097 35.5067 242.71 35.16C242.337 34.8 242.15 34.36 242.15 33.84C242.15 33.3067 242.337 32.8667 242.71 32.52C243.097 32.16 243.59 31.98 244.19 31.98C244.777 31.98 245.257 32.16 245.63 32.52C246.017 32.8667 246.21 33.3067 246.21 33.84C246.21 34.36 246.017 34.8 245.63 35.16C245.257 35.5067 244.777 35.68 244.19 35.68ZM245.89 36.84V48H242.47V36.84H245.89Z" fill="white"/>
<path d="M160.32 92.72C162.907 90.6933 165.027 88.9467 166.68 87.48C168.333 86.0133 169.72 84.5067 170.84 82.96C171.96 81.3867 172.52 79.8933 172.52 78.48C172.52 77.6267 172.32 76.96 171.92 76.48C171.547 76 170.987 75.76 170.24 75.76C169.467 75.76 168.867 76.0933 168.44 76.76C168.013 77.4 167.813 78.3467 167.84 79.6H160.24C160.32 77.2267 160.84 75.2667 161.8 73.72C162.76 72.1467 164.013 71 165.56 70.28C167.107 69.5333 168.827 69.16 170.72 69.16C174 69.16 176.44 69.9733 178.04 71.6C179.64 73.2267 180.44 75.3333 180.44 77.92C180.44 80.6933 179.507 83.2933 177.64 85.72C175.8 88.1467 173.493 90.32 170.72 92.24H180.72V98.6H160.32V92.72ZM197.213 78.16C197.027 77.2533 196.72 76.5867 196.293 76.16C195.867 75.7333 195.24 75.52 194.413 75.52C193.16 75.52 192.28 76.1067 191.773 77.28C191.293 78.4533 191.04 80.2933 191.013 82.8C191.547 81.9733 192.32 81.32 193.333 80.84C194.347 80.36 195.467 80.12 196.693 80.12C199.28 80.12 201.347 80.92 202.893 82.52C204.467 84.12 205.253 86.4133 205.253 89.4C205.253 91.3733 204.84 93.1067 204.013 94.6C203.213 96.0667 202.04 97.2 200.493 98C198.973 98.8 197.173 99.2 195.093 99.2C190.96 99.2 188.08 97.92 186.453 95.36C184.853 92.7733 184.053 89.12 184.053 84.4C184.053 79.1733 184.907 75.3333 186.613 72.88C188.32 70.4267 191.067 69.2 194.853 69.2C197.92 69.2 200.24 70.0667 201.813 71.8C203.413 73.5067 204.307 75.6267 204.493 78.16H197.213ZM194.773 86.2C193.84 86.2 193.067 86.4667 192.453 87C191.867 87.5333 191.573 88.2933 191.573 89.28C191.573 90.32 191.853 91.12 192.413 91.68C192.973 92.24 193.773 92.52 194.813 92.52C195.773 92.52 196.52 92.2533 197.053 91.72C197.613 91.16 197.893 90.3733 197.893 89.36C197.893 88.3733 197.613 87.6 197.053 87.04C196.52 86.48 195.76 86.2 194.773 86.2ZM213.204 99.32C211.817 99.32 210.697 98.9467 209.844 98.2C209.017 97.4267 208.604 96.4533 208.604 95.28C208.604 94.1067 209.017 93.1333 209.844 92.36C210.697 91.5867 211.817 91.2 213.204 91.2C214.564 91.2 215.657 91.5867 216.484 92.36C217.337 93.1333 217.764 94.1067 217.764 95.28C217.764 96.4267 217.337 97.3867 216.484 98.16C215.657 98.9333 214.564 99.32 213.204 99.32ZM242.035 76.68H230.035V81.12C230.542 80.5867 231.235 80.16 232.115 79.84C232.995 79.52 233.969 79.36 235.035 79.36C236.955 79.36 238.555 79.8 239.835 80.68C241.142 81.56 242.102 82.72 242.715 84.16C243.329 85.6 243.635 87.1733 243.635 88.88C243.635 92.0267 242.742 94.5067 240.955 96.32C239.169 98.1067 236.689 99 233.515 99C231.302 99 229.382 98.6267 227.755 97.88C226.155 97.1067 224.929 96.04 224.075 94.68C223.222 93.32 222.782 91.76 222.755 90H230.395C230.475 90.6133 230.742 91.1467 231.195 91.6C231.649 92.0533 232.315 92.28 233.195 92.28C234.129 92.28 234.835 91.96 235.315 91.32C235.795 90.68 236.035 89.8267 236.035 88.76C236.035 87.72 235.782 86.9333 235.275 86.4C234.769 85.84 234.035 85.56 233.075 85.56C232.355 85.56 231.769 85.7467 231.315 86.12C230.889 86.4667 230.635 86.9067 230.555 87.44H222.915V69.76H242.035V76.68ZM254.343 84.84C254.343 82.0667 254.916 79.6 256.063 77.44C257.236 75.2533 258.889 73.56 261.023 72.36C263.156 71.1333 265.609 70.52 268.383 70.52C271.903 70.52 274.863 71.4667 277.263 73.36C279.663 75.2267 281.209 77.7733 281.903 81H273.463C272.956 79.9333 272.249 79.12 271.343 78.56C270.463 78 269.436 77.72 268.263 77.72C266.449 77.72 264.996 78.3733 263.903 79.68C262.836 80.96 262.303 82.68 262.303 84.84C262.303 87.0267 262.836 88.7733 263.903 90.08C264.996 91.36 266.449 92 268.263 92C269.436 92 270.463 91.72 271.343 91.16C272.249 90.6 272.956 89.7867 273.463 88.72H281.903C281.209 91.9467 279.663 94.5067 277.263 96.4C274.863 98.2667 271.903 99.2 268.383 99.2C265.609 99.2 263.156 98.6 261.023 97.4C258.889 96.1733 257.236 94.48 256.063 92.32C254.916 90.1333 254.343 87.64 254.343 84.84Z" fill="#F5F5F5"/>
<path d="M174.438 129.125C173.826 129.141 173.232 128.914 172.787 128.494C172.342 128.074 172.081 127.494 172.062 126.882C172.074 126.446 172.208 126.021 172.45 125.657L173.945 123.433C174.002 123.357 174.077 123.295 174.162 123.252C174.248 123.209 174.342 123.187 174.438 123.187C174.533 123.187 174.627 123.209 174.713 123.252C174.798 123.295 174.873 123.357 174.93 123.433L176.406 125.628C176.658 125.999 176.799 126.434 176.812 126.882C176.794 127.494 176.533 128.074 176.088 128.494C175.643 128.914 175.049 129.141 174.438 129.125ZM174.438 124.828L173.454 126.29C173.331 126.464 173.261 126.67 173.25 126.882C173.284 127.173 173.424 127.441 173.643 127.636C173.862 127.83 174.145 127.937 174.438 127.937C174.73 127.937 175.013 127.83 175.232 127.636C175.451 127.441 175.591 127.173 175.625 126.882C175.612 126.658 175.534 126.442 175.402 126.261L174.438 124.828Z" fill="#F5F5F5"/>
<path d="M172.953 139.812H164.047C163.09 139.814 162.168 139.459 161.458 138.818C160.748 138.177 160.302 137.295 160.205 136.343C160.109 135.392 160.37 134.438 160.937 133.668C161.504 132.898 162.338 132.366 163.275 132.176C163.528 130.977 164.185 129.902 165.136 129.131C166.088 128.36 167.275 127.939 168.5 127.939C169.725 127.939 170.912 128.36 171.864 129.131C172.815 129.902 173.472 130.977 173.725 132.176C174.662 132.366 175.496 132.898 176.063 133.668C176.63 134.438 176.891 135.392 176.795 136.343C176.699 137.295 176.252 138.177 175.542 138.818C174.832 139.459 173.91 139.814 172.953 139.812ZM168.5 129.125C167.486 129.126 166.508 129.497 165.749 130.169C164.99 130.841 164.503 131.767 164.379 132.774L164.319 133.256L163.836 133.294C163.146 133.346 162.504 133.664 162.045 134.18C161.585 134.696 161.343 135.371 161.371 136.061C161.398 136.752 161.692 137.405 162.191 137.883C162.691 138.361 163.356 138.627 164.047 138.625H172.953C173.644 138.627 174.309 138.361 174.809 137.883C175.308 137.405 175.602 136.752 175.629 136.061C175.657 135.371 175.415 134.696 174.955 134.18C174.496 133.664 173.854 133.346 173.165 133.294L172.681 133.256L172.622 132.774C172.498 131.767 172.01 130.841 171.251 130.169C170.492 129.497 169.514 129.126 168.5 129.125Z" fill="#F5F5F5"/>
<path d="M186 124C186 121.239 188.239 119 191 119H234C236.761 119 239 121.239 239 124V138C239 140.761 236.761 143 234 143H191C188.239 143 186 140.761 186 138V124Z" fill="#636465"/>
<rect x="271" y="118" width="52" height="24" rx="5" fill="#636465"/>
<path d="M200.562 131.666C199.591 131.181 199.106 130.415 199.106 129.37C199.106 128.866 199.232 128.404 199.484 127.984C199.736 127.564 200.114 127.233 200.618 126.99C201.122 126.738 201.738 126.612 202.466 126.612C203.185 126.612 203.796 126.738 204.3 126.99C204.813 127.233 205.196 127.564 205.448 127.984C205.7 128.404 205.826 128.866 205.826 129.37C205.826 129.893 205.691 130.355 205.42 130.756C205.159 131.148 204.809 131.451 204.37 131.666C204.902 131.862 205.322 132.184 205.63 132.632C205.938 133.071 206.092 133.589 206.092 134.186C206.092 134.793 205.938 135.329 205.63 135.796C205.322 136.263 204.893 136.622 204.342 136.874C203.791 137.126 203.166 137.252 202.466 137.252C201.766 137.252 201.141 137.126 200.59 136.874C200.049 136.622 199.624 136.263 199.316 135.796C199.008 135.329 198.854 134.793 198.854 134.186C198.854 133.579 199.008 133.057 199.316 132.618C199.624 132.179 200.039 131.862 200.562 131.666ZM204.3 129.566C204.3 129.043 204.137 128.642 203.81 128.362C203.483 128.082 203.035 127.942 202.466 127.942C201.906 127.942 201.463 128.082 201.136 128.362C200.809 128.642 200.646 129.048 200.646 129.58C200.646 130.047 200.814 130.429 201.15 130.728C201.495 131.017 201.934 131.162 202.466 131.162C202.998 131.162 203.437 131.013 203.782 130.714C204.127 130.415 204.3 130.033 204.3 129.566ZM202.466 132.366C201.85 132.366 201.346 132.52 200.954 132.828C200.571 133.127 200.38 133.561 200.38 134.13C200.38 134.662 200.567 135.096 200.94 135.432C201.313 135.759 201.822 135.922 202.466 135.922C203.101 135.922 203.6 135.754 203.964 135.418C204.337 135.082 204.524 134.653 204.524 134.13C204.524 133.57 204.333 133.136 203.95 132.828C203.577 132.52 203.082 132.366 202.466 132.366ZM213.256 129.16C213.153 128.731 212.966 128.409 212.696 128.194C212.425 127.979 212.047 127.872 211.562 127.872C210.824 127.872 210.274 128.157 209.91 128.726C209.546 129.286 209.354 130.219 209.336 131.526C209.578 131.115 209.933 130.798 210.4 130.574C210.866 130.35 211.37 130.238 211.912 130.238C212.528 130.238 213.069 130.373 213.536 130.644C214.012 130.905 214.38 131.288 214.642 131.792C214.912 132.296 215.048 132.898 215.048 133.598C215.048 134.251 214.917 134.835 214.656 135.348C214.404 135.861 214.026 136.267 213.522 136.566C213.018 136.855 212.411 137 211.702 137C210.74 137 209.984 136.79 209.434 136.37C208.892 135.941 208.51 135.339 208.286 134.564C208.071 133.789 207.964 132.823 207.964 131.666C207.964 128.25 209.168 126.542 211.576 126.542C212.509 126.542 213.242 126.794 213.774 127.298C214.315 127.802 214.632 128.423 214.726 129.16H213.256ZM211.562 131.582C210.992 131.582 210.507 131.755 210.106 132.1C209.714 132.436 209.518 132.926 209.518 133.57C209.518 134.214 209.7 134.727 210.064 135.11C210.437 135.483 210.955 135.67 211.618 135.67C212.206 135.67 212.668 135.488 213.004 135.124C213.349 134.76 213.522 134.275 213.522 133.668C213.522 133.033 213.354 132.529 213.018 132.156C212.691 131.773 212.206 131.582 211.562 131.582ZM216.498 129.258C216.498 128.577 216.694 128.045 217.086 127.662C217.487 127.27 218.001 127.074 218.626 127.074C219.251 127.074 219.76 127.27 220.152 127.662C220.553 128.045 220.754 128.577 220.754 129.258C220.754 129.939 220.553 130.476 220.152 130.868C219.76 131.26 219.251 131.456 218.626 131.456C218.001 131.456 217.487 131.26 217.086 130.868C216.694 130.476 216.498 129.939 216.498 129.258ZM225.038 127.256L219.452 137H217.884L223.47 127.256H225.038ZM218.626 128.04C218.038 128.04 217.744 128.446 217.744 129.258C217.744 130.079 218.038 130.49 218.626 130.49C218.906 130.49 219.121 130.392 219.27 130.196C219.429 129.991 219.508 129.678 219.508 129.258C219.508 128.446 219.214 128.04 218.626 128.04ZM222.196 134.984C222.196 134.303 222.392 133.771 222.784 133.388C223.185 132.996 223.699 132.8 224.324 132.8C224.94 132.8 225.444 132.996 225.836 133.388C226.237 133.771 226.438 134.303 226.438 134.984C226.438 135.665 226.237 136.202 225.836 136.594C225.444 136.986 224.94 137.182 224.324 137.182C223.699 137.182 223.185 136.986 222.784 136.594C222.392 136.202 222.196 135.665 222.196 134.984ZM224.31 133.766C223.722 133.766 223.428 134.172 223.428 134.984C223.428 135.796 223.722 136.202 224.31 136.202C224.898 136.202 225.192 135.796 225.192 134.984C225.192 134.172 224.898 133.766 224.31 133.766Z" fill="#E4E4E4"/>
<path d="M284.63 126.25V124.794H287.542V135H285.932V126.25H284.63ZM289.707 127.314C289.763 126.446 290.094 125.769 290.701 125.284C291.317 124.799 292.101 124.556 293.053 124.556C293.706 124.556 294.271 124.673 294.747 124.906C295.223 125.139 295.582 125.457 295.825 125.858C296.067 126.259 296.189 126.712 296.189 127.216C296.189 127.795 296.035 128.289 295.727 128.7C295.419 129.111 295.05 129.386 294.621 129.526V129.582C295.171 129.75 295.601 130.058 295.909 130.506C296.217 130.945 296.371 131.509 296.371 132.2C296.371 132.751 296.245 133.241 295.993 133.67C295.741 134.099 295.367 134.44 294.873 134.692C294.378 134.935 293.785 135.056 293.095 135.056C292.087 135.056 291.256 134.799 290.603 134.286C289.959 133.763 289.613 133.017 289.567 132.046H291.107C291.144 132.541 291.335 132.947 291.681 133.264C292.026 133.572 292.493 133.726 293.081 133.726C293.65 133.726 294.089 133.572 294.397 133.264C294.705 132.947 294.859 132.541 294.859 132.046C294.859 131.393 294.649 130.931 294.229 130.66C293.818 130.38 293.183 130.24 292.325 130.24H291.961V128.924H292.339C293.095 128.915 293.669 128.789 294.061 128.546C294.462 128.303 294.663 127.921 294.663 127.398C294.663 126.95 294.518 126.595 294.229 126.334C293.939 126.063 293.529 125.928 292.997 125.928C292.474 125.928 292.068 126.063 291.779 126.334C291.489 126.595 291.317 126.922 291.261 127.314H289.707ZM298.901 135.098C298.612 135.098 298.369 135 298.173 134.804C297.977 134.608 297.879 134.365 297.879 134.076C297.879 133.787 297.977 133.544 298.173 133.348C298.369 133.152 298.612 133.054 298.901 133.054C299.181 133.054 299.419 133.152 299.615 133.348C299.811 133.544 299.909 133.787 299.909 134.076C299.909 134.365 299.811 134.608 299.615 134.804C299.419 135 299.181 135.098 298.901 135.098ZM301.228 132.872V131.668L305.932 124.92H307.864V131.486H309.166V132.872H307.864V135H306.296V132.872H301.228ZM306.366 126.544L303.062 131.486H306.366V126.544Z" fill="#E4E4E4"/>
<path d="M346 0H472C483.046 0 492 8.9543 492 20V152C492 163.046 483.046 172 472 172H346V0Z" fill="#565758"/>
<path d="M256.313 135.629H251.167V133.908H256.313C256.818 133.908 257.314 134.058 257.747 134.343C258.179 134.628 258.532 135.036 258.766 135.523C259.001 136.01 259.108 136.557 259.077 137.106C259.046 137.654 258.877 138.183 258.589 138.635C258.301 139.087 257.905 139.444 257.443 139.669C256.981 139.893 256.472 139.976 255.97 139.908C255.468 139.841 254.993 139.625 254.596 139.285C254.199 138.944 253.895 138.492 253.717 137.978L255.2 137.373C255.276 137.593 255.407 137.787 255.577 137.933C255.747 138.079 255.951 138.171 256.166 138.2C256.381 138.229 256.599 138.194 256.797 138.098C256.995 138.001 257.165 137.848 257.288 137.655C257.411 137.461 257.484 137.234 257.497 136.999C257.511 136.764 257.465 136.53 257.364 136.321C257.264 136.112 257.113 135.937 256.927 135.815C256.742 135.693 256.529 135.629 256.313 135.629ZM251.958 130.466H262.646C263.152 130.466 263.648 130.616 264.08 130.901C264.513 131.186 264.865 131.594 265.1 132.081C265.334 132.568 265.442 133.115 265.41 133.664C265.379 134.212 265.21 134.741 264.922 135.193C264.634 135.645 264.238 136.002 263.776 136.227C263.315 136.451 262.805 136.534 262.304 136.466C261.802 136.399 261.327 136.183 260.929 135.843C260.532 135.502 260.228 135.05 260.051 134.536L261.534 133.931C261.61 134.151 261.74 134.345 261.91 134.491C262.08 134.637 262.284 134.729 262.499 134.758C262.714 134.787 262.932 134.752 263.13 134.656C263.328 134.559 263.498 134.406 263.621 134.213C263.745 134.019 263.817 133.792 263.831 133.557C263.844 133.322 263.798 133.088 263.697 132.879C263.597 132.67 263.446 132.495 263.261 132.373C263.075 132.251 262.863 132.187 262.646 132.187H251.958C251.328 132.187 250.724 131.915 250.279 131.43C249.834 130.946 249.583 130.29 249.583 129.605C249.583 128.92 249.834 128.264 250.279 127.78C250.724 127.296 251.328 127.024 251.958 127.024H258.688C258.904 127.023 259.117 126.959 259.302 126.837C259.488 126.715 259.639 126.54 259.739 126.331C259.84 126.123 259.886 125.888 259.872 125.653C259.859 125.418 259.786 125.191 259.663 124.997C259.54 124.804 259.37 124.651 259.172 124.555C258.974 124.458 258.756 124.423 258.541 124.452C258.326 124.481 258.122 124.573 257.952 124.719C257.782 124.865 257.651 125.059 257.575 125.279L256.092 124.675C256.321 124.015 256.755 123.463 257.319 123.115C257.884 122.767 258.543 122.645 259.181 122.771C259.82 122.897 260.397 123.262 260.813 123.804C261.23 124.345 261.458 125.027 261.458 125.733C261.458 126.532 261.166 127.298 260.647 127.862C260.127 128.427 259.422 128.745 258.688 128.745H251.958C251.748 128.745 251.547 128.835 251.399 128.997C251.25 129.158 251.167 129.377 251.167 129.605C251.167 129.833 251.25 130.052 251.399 130.214C251.547 130.375 251.748 130.466 251.958 130.466Z" fill="#F5F5F5"/>
</g>
<rect x="79" y="193" width="363" height="173" rx="20" fill="#494A4B"/>
<path fill-rule="evenodd" clip-rule="evenodd" d="M109 233.5C109 230.715 110.106 228.045 112.075 226.075C114.045 224.106 116.715 223 119.5 223C122.285 223 124.955 224.106 126.925 226.075C128.894 228.045 130 230.715 130 233.5C130 236.285 128.894 238.955 126.925 240.925C124.955 242.894 122.285 244 119.5 244C116.715 244 114.045 242.894 112.075 240.925C110.106 238.955 109 236.285 109 233.5V233.5ZM118.901 237.994L124.946 230.437L123.854 229.563L118.699 236.005L115.048 232.962L114.152 234.038L118.901 237.995V237.994Z" fill="#B1FFF1"/>
<path d="M162.14 226.96V241H158.72V232.58L155.58 241H152.82L149.66 232.56V241H146.24V226.96H150.28L154.22 236.68L158.12 226.96H162.14ZM175.619 229.84V241H172.199V239.48C171.853 239.973 171.379 240.373 170.779 240.68C170.193 240.973 169.539 241.12 168.819 241.12C167.966 241.12 167.213 240.933 166.559 240.56C165.906 240.173 165.399 239.62 165.039 238.9C164.679 238.18 164.499 237.333 164.499 236.36V229.84H167.899V235.9C167.899 236.647 168.093 237.227 168.479 237.64C168.866 238.053 169.386 238.26 170.039 238.26C170.706 238.26 171.233 238.053 171.619 237.64C172.006 237.227 172.199 236.647 172.199 235.9V229.84H175.619ZM192.316 229.72C193.703 229.72 194.803 230.14 195.616 230.98C196.443 231.82 196.856 232.987 196.856 234.48V241H193.456V234.94C193.456 234.22 193.263 233.667 192.876 233.28C192.503 232.88 191.983 232.68 191.316 232.68C190.649 232.68 190.123 232.88 189.736 233.28C189.363 233.667 189.176 234.22 189.176 234.94V241H185.776V234.94C185.776 234.22 185.583 233.667 185.196 233.28C184.823 232.88 184.303 232.68 183.636 232.68C182.969 232.68 182.443 232.88 182.056 233.28C181.683 233.667 181.496 234.22 181.496 234.94V241H178.076V229.84H181.496V231.24C181.843 230.773 182.296 230.407 182.856 230.14C183.416 229.86 184.049 229.72 184.756 229.72C185.596 229.72 186.343 229.9 186.996 230.26C187.663 230.62 188.183 231.133 188.556 231.8C188.943 231.187 189.469 230.687 190.136 230.3C190.803 229.913 191.529 229.72 192.316 229.72ZM202.668 231.42C202.988 230.9 203.448 230.48 204.048 230.16C204.648 229.84 205.334 229.68 206.108 229.68C207.028 229.68 207.861 229.913 208.608 230.38C209.354 230.847 209.941 231.513 210.368 232.38C210.808 233.247 211.028 234.253 211.028 235.4C211.028 236.547 210.808 237.56 210.368 238.44C209.941 239.307 209.354 239.98 208.608 240.46C207.861 240.927 207.028 241.16 206.108 241.16C205.321 241.16 204.634 241.007 204.048 240.7C203.461 240.38 203.001 239.96 202.668 239.44V241H199.248V226.2H202.668V231.42ZM207.548 235.4C207.548 234.547 207.308 233.88 206.828 233.4C206.361 232.907 205.781 232.66 205.088 232.66C204.408 232.66 203.828 232.907 203.348 233.4C202.881 233.893 202.648 234.567 202.648 235.42C202.648 236.273 202.881 236.947 203.348 237.44C203.828 237.933 204.408 238.18 205.088 238.18C205.768 238.18 206.348 237.933 206.828 237.44C207.308 236.933 207.548 236.253 207.548 235.4ZM212.142 235.4C212.142 234.253 212.355 233.247 212.782 232.38C213.222 231.513 213.815 230.847 214.562 230.38C215.309 229.913 216.142 229.68 217.062 229.68C217.849 229.68 218.535 229.84 219.122 230.16C219.722 230.48 220.182 230.9 220.502 231.42V229.84H223.922V241H220.502V239.42C220.169 239.94 219.702 240.36 219.102 240.68C218.515 241 217.829 241.16 217.042 241.16C216.135 241.16 215.309 240.927 214.562 240.46C213.815 239.98 213.222 239.307 212.782 238.44C212.355 237.56 212.142 236.547 212.142 235.4ZM220.502 235.42C220.502 234.567 220.262 233.893 219.782 233.4C219.315 232.907 218.742 232.66 218.062 232.66C217.382 232.66 216.802 232.907 216.322 233.4C215.855 233.88 215.622 234.547 215.622 235.4C215.622 236.253 215.855 236.933 216.322 237.44C216.802 237.933 217.382 238.18 218.062 238.18C218.742 238.18 219.315 237.933 219.782 237.44C220.262 236.947 220.502 236.273 220.502 235.42ZM228.116 228.68C227.516 228.68 227.023 228.507 226.636 228.16C226.263 227.8 226.076 227.36 226.076 226.84C226.076 226.307 226.263 225.867 226.636 225.52C227.023 225.16 227.516 224.98 228.116 224.98C228.703 224.98 229.183 225.16 229.556 225.52C229.943 225.867 230.136 226.307 230.136 226.84C230.136 227.36 229.943 227.8 229.556 228.16C229.183 228.507 228.703 228.68 228.116 228.68ZM229.816 229.84V241H226.396V229.84H229.816Z" fill="white"/>
<path d="M110.92 271.48C111.027 268.467 111.96 266.16 113.72 264.56C115.48 262.933 117.933 262.12 121.08 262.12C123.133 262.12 124.88 262.48 126.32 263.2C127.787 263.893 128.893 264.853 129.64 266.08C130.387 267.28 130.76 268.64 130.76 270.16C130.76 271.973 130.32 273.427 129.44 274.52C128.56 275.587 127.56 276.307 126.44 276.68V276.84C129.667 278.04 131.28 280.333 131.28 283.72C131.28 285.4 130.893 286.88 130.12 288.16C129.347 289.44 128.227 290.44 126.76 291.16C125.293 291.88 123.547 292.24 121.52 292.24C118.187 292.24 115.547 291.44 113.6 289.84C111.68 288.213 110.68 285.733 110.6 282.4H118.24C118.187 283.467 118.413 284.293 118.92 284.88C119.427 285.467 120.187 285.76 121.2 285.76C121.973 285.76 122.573 285.52 123 285.04C123.453 284.56 123.68 283.92 123.68 283.12C123.68 282.107 123.347 281.36 122.68 280.88C122.04 280.4 120.987 280.16 119.52 280.16H118.12V273.8H119.48C120.493 273.827 121.347 273.667 122.04 273.32C122.76 272.947 123.12 272.213 123.12 271.12C123.12 270.293 122.92 269.68 122.52 269.28C122.12 268.853 121.573 268.64 120.88 268.64C120.107 268.64 119.533 268.92 119.16 269.48C118.813 270.013 118.613 270.68 118.56 271.48H110.92ZM156.254 269.68H144.254V274.12C144.761 273.587 145.454 273.16 146.334 272.84C147.214 272.52 148.187 272.36 149.254 272.36C151.174 272.36 152.774 272.8 154.054 273.68C155.361 274.56 156.321 275.72 156.934 277.16C157.547 278.6 157.854 280.173 157.854 281.88C157.854 285.027 156.961 287.507 155.174 289.32C153.387 291.107 150.907 292 147.734 292C145.521 292 143.601 291.627 141.974 290.88C140.374 290.107 139.147 289.04 138.294 287.68C137.441 286.32 137.001 284.76 136.974 283H144.614C144.694 283.613 144.961 284.147 145.414 284.6C145.867 285.053 146.534 285.28 147.414 285.28C148.347 285.28 149.054 284.96 149.534 284.32C150.014 283.68 150.254 282.827 150.254 281.76C150.254 280.72 150.001 279.933 149.494 279.4C148.987 278.84 148.254 278.56 147.294 278.56C146.574 278.56 145.987 278.747 145.534 279.12C145.107 279.467 144.854 279.907 144.774 280.44H137.134V262.76H156.254V269.68ZM165.665 292.32C164.278 292.32 163.158 291.947 162.305 291.2C161.478 290.427 161.065 289.453 161.065 288.28C161.065 287.107 161.478 286.133 162.305 285.36C163.158 284.587 164.278 284.2 165.665 284.2C167.025 284.2 168.118 284.587 168.945 285.36C169.798 286.133 170.225 287.107 170.225 288.28C170.225 289.427 169.798 290.387 168.945 291.16C168.118 291.933 167.025 292.32 165.665 292.32ZM187.096 271.16C186.91 270.253 186.603 269.587 186.176 269.16C185.75 268.733 185.123 268.52 184.296 268.52C183.043 268.52 182.163 269.107 181.656 270.28C181.176 271.453 180.923 273.293 180.896 275.8C181.43 274.973 182.203 274.32 183.216 273.84C184.23 273.36 185.35 273.12 186.576 273.12C189.163 273.12 191.23 273.92 192.776 275.52C194.35 277.12 195.136 279.413 195.136 282.4C195.136 284.373 194.723 286.107 193.896 287.6C193.096 289.067 191.923 290.2 190.376 291C188.856 291.8 187.056 292.2 184.976 292.2C180.843 292.2 177.963 290.92 176.336 288.36C174.736 285.773 173.936 282.12 173.936 277.4C173.936 272.173 174.79 268.333 176.496 265.88C178.203 263.427 180.95 262.2 184.736 262.2C187.803 262.2 190.123 263.067 191.696 264.8C193.296 266.507 194.19 268.627 194.376 271.16H187.096ZM184.656 279.2C183.723 279.2 182.95 279.467 182.336 280C181.75 280.533 181.456 281.293 181.456 282.28C181.456 283.32 181.736 284.12 182.296 284.68C182.856 285.24 183.656 285.52 184.696 285.52C185.656 285.52 186.403 285.253 186.936 284.72C187.496 284.16 187.776 283.373 187.776 282.36C187.776 281.373 187.496 280.6 186.936 280.04C186.403 279.48 185.643 279.2 184.656 279.2ZM205.983 277.84C205.983 275.067 206.556 272.6 207.703 270.44C208.876 268.253 210.53 266.56 212.663 265.36C214.796 264.133 217.25 263.52 220.023 263.52C223.543 263.52 226.503 264.467 228.903 266.36C231.303 268.227 232.85 270.773 233.543 274H225.103C224.596 272.933 223.89 272.12 222.983 271.56C222.103 271 221.076 270.72 219.903 270.72C218.09 270.72 216.636 271.373 215.543 272.68C214.476 273.96 213.943 275.68 213.943 277.84C213.943 280.027 214.476 281.773 215.543 283.08C216.636 284.36 218.09 285 219.903 285C221.076 285 222.103 284.72 222.983 284.16C223.89 283.6 224.596 282.787 225.103 281.72H233.543C232.85 284.947 231.303 287.507 228.903 289.4C226.503 291.267 223.543 292.2 220.023 292.2C217.25 292.2 214.796 291.6 212.663 290.4C210.53 289.173 208.876 287.48 207.703 285.32C206.556 283.133 205.983 280.64 205.983 277.84Z" fill="#F5F5F5"/>
<path d="M124.438 322.125C123.826 322.141 123.232 321.914 122.787 321.494C122.342 321.074 122.081 320.494 122.062 319.882C122.074 319.446 122.208 319.021 122.45 318.657L123.945 316.433C124.002 316.357 124.077 316.295 124.162 316.252C124.248 316.209 124.342 316.187 124.438 316.187C124.533 316.187 124.627 316.209 124.713 316.252C124.798 316.295 124.873 316.357 124.93 316.433L126.406 318.628C126.658 318.999 126.799 319.434 126.812 319.882C126.794 320.494 126.533 321.074 126.088 321.494C125.643 321.914 125.049 322.141 124.438 322.125ZM124.438 317.828L123.454 319.29C123.331 319.464 123.261 319.67 123.25 319.882C123.284 320.173 123.424 320.441 123.643 320.636C123.862 320.83 124.145 320.937 124.438 320.937C124.73 320.937 125.013 320.83 125.232 320.636C125.451 320.441 125.591 320.173 125.625 319.882C125.612 319.658 125.534 319.442 125.402 319.261L124.438 317.828Z" fill="#F5F5F5"/>
<path d="M122.953 332.812H114.047C113.09 332.814 112.168 332.459 111.458 331.818C110.748 331.177 110.301 330.295 110.205 329.343C110.109 328.392 110.37 327.438 110.937 326.668C111.504 325.898 112.338 325.366 113.275 325.176C113.528 323.977 114.185 322.902 115.136 322.131C116.088 321.36 117.275 320.939 118.5 320.939C119.725 320.939 120.912 321.36 121.864 322.131C122.815 322.902 123.472 323.977 123.725 325.176C124.662 325.366 125.496 325.898 126.063 326.668C126.63 327.438 126.891 328.392 126.795 329.343C126.699 330.295 126.252 331.177 125.542 331.818C124.832 332.459 123.91 332.814 122.953 332.812ZM118.5 322.125C117.486 322.126 116.508 322.497 115.749 323.169C114.99 323.841 114.503 324.767 114.379 325.774L114.319 326.256L113.835 326.294C113.146 326.346 112.504 326.664 112.045 327.18C111.585 327.696 111.343 328.371 111.371 329.061C111.398 329.752 111.692 330.405 112.191 330.883C112.691 331.361 113.356 331.627 114.047 331.625H122.953C123.644 331.627 124.309 331.361 124.809 330.883C125.308 330.405 125.602 329.752 125.629 329.061C125.657 328.371 125.415 327.696 124.955 327.18C124.496 326.664 123.854 326.346 123.164 326.294L122.681 326.256L122.622 325.774C122.498 324.767 122.01 323.841 121.251 323.169C120.492 322.497 119.514 322.126 118.5 322.125Z" fill="#F5F5F5"/>
<path d="M136 317C136 314.239 138.239 312 141 312H184C186.761 312 189 314.239 189 317V331C189 333.761 186.761 336 184 336H141C138.239 336 136 333.761 136 331V317Z" fill="#636465"/>
<rect x="221" y="311" width="52" height="24" rx="5" fill="#636465"/>
<path d="M150.828 327.228C150.921 327.695 151.122 328.049 151.43 328.292C151.738 328.535 152.153 328.656 152.676 328.656C153.339 328.656 153.824 328.395 154.132 327.872C154.44 327.349 154.594 326.458 154.594 325.198C154.37 325.515 154.053 325.763 153.642 325.94C153.241 326.108 152.802 326.192 152.326 326.192C151.719 326.192 151.169 326.071 150.674 325.828C150.179 325.576 149.787 325.207 149.498 324.722C149.218 324.227 149.078 323.63 149.078 322.93C149.078 321.903 149.377 321.087 149.974 320.48C150.581 319.864 151.411 319.556 152.466 319.556C153.735 319.556 154.636 319.981 155.168 320.83C155.709 321.67 155.98 322.963 155.98 324.708C155.98 325.912 155.877 326.897 155.672 327.662C155.476 328.427 155.131 329.006 154.636 329.398C154.141 329.79 153.455 329.986 152.578 329.986C151.579 329.986 150.809 329.725 150.268 329.202C149.727 328.679 149.423 328.021 149.358 327.228H150.828ZM152.606 324.848C153.166 324.848 153.605 324.675 153.922 324.33C154.249 323.975 154.412 323.509 154.412 322.93C154.412 322.286 154.239 321.787 153.894 321.432C153.558 321.068 153.096 320.886 152.508 320.886C151.92 320.886 151.453 321.073 151.108 321.446C150.772 321.81 150.604 322.291 150.604 322.888C150.604 323.457 150.767 323.929 151.094 324.302C151.43 324.666 151.934 324.848 152.606 324.848ZM163.215 322.16C163.112 321.731 162.925 321.409 162.655 321.194C162.384 320.979 162.006 320.872 161.521 320.872C160.783 320.872 160.233 321.157 159.869 321.726C159.505 322.286 159.313 323.219 159.295 324.526C159.537 324.115 159.892 323.798 160.359 323.574C160.825 323.35 161.329 323.238 161.871 323.238C162.487 323.238 163.028 323.373 163.495 323.644C163.971 323.905 164.339 324.288 164.601 324.792C164.871 325.296 165.007 325.898 165.007 326.598C165.007 327.251 164.876 327.835 164.615 328.348C164.363 328.861 163.985 329.267 163.481 329.566C162.977 329.855 162.37 330 161.661 330C160.699 330 159.943 329.79 159.393 329.37C158.851 328.941 158.469 328.339 158.245 327.564C158.03 326.789 157.923 325.823 157.923 324.666C157.923 321.25 159.127 319.542 161.535 319.542C162.468 319.542 163.201 319.794 163.733 320.298C164.274 320.802 164.591 321.423 164.685 322.16H163.215ZM161.521 324.582C160.951 324.582 160.466 324.755 160.065 325.1C159.673 325.436 159.477 325.926 159.477 326.57C159.477 327.214 159.659 327.727 160.023 328.11C160.396 328.483 160.914 328.67 161.577 328.67C162.165 328.67 162.627 328.488 162.963 328.124C163.308 327.76 163.481 327.275 163.481 326.668C163.481 326.033 163.313 325.529 162.977 325.156C162.65 324.773 162.165 324.582 161.521 324.582ZM166.457 322.258C166.457 321.577 166.653 321.045 167.045 320.662C167.446 320.27 167.96 320.074 168.585 320.074C169.21 320.074 169.719 320.27 170.111 320.662C170.512 321.045 170.713 321.577 170.713 322.258C170.713 322.939 170.512 323.476 170.111 323.868C169.719 324.26 169.21 324.456 168.585 324.456C167.96 324.456 167.446 324.26 167.045 323.868C166.653 323.476 166.457 322.939 166.457 322.258ZM174.997 320.256L169.411 330H167.843L173.429 320.256H174.997ZM168.585 321.04C167.997 321.04 167.703 321.446 167.703 322.258C167.703 323.079 167.997 323.49 168.585 323.49C168.865 323.49 169.08 323.392 169.229 323.196C169.388 322.991 169.467 322.678 169.467 322.258C169.467 321.446 169.173 321.04 168.585 321.04ZM172.155 327.984C172.155 327.303 172.351 326.771 172.743 326.388C173.144 325.996 173.658 325.8 174.283 325.8C174.899 325.8 175.403 325.996 175.795 326.388C176.196 326.771 176.397 327.303 176.397 327.984C176.397 328.665 176.196 329.202 175.795 329.594C175.403 329.986 174.899 330.182 174.283 330.182C173.658 330.182 173.144 329.986 172.743 329.594C172.351 329.202 172.155 328.665 172.155 327.984ZM174.269 326.766C173.681 326.766 173.387 327.172 173.387 327.984C173.387 328.796 173.681 329.202 174.269 329.202C174.857 329.202 175.151 328.796 175.151 327.984C175.151 327.172 174.857 326.766 174.269 326.766Z" fill="#E4E4E4"/>
<path d="M233.722 326.83C234.618 326.055 235.323 325.421 235.836 324.926C236.359 324.422 236.793 323.899 237.138 323.358C237.483 322.817 237.656 322.275 237.656 321.734C237.656 321.174 237.521 320.735 237.25 320.418C236.989 320.101 236.573 319.942 236.004 319.942C235.453 319.942 235.024 320.119 234.716 320.474C234.417 320.819 234.259 321.286 234.24 321.874H232.7C232.728 320.81 233.045 319.998 233.652 319.438C234.268 318.869 235.047 318.584 235.99 318.584C237.007 318.584 237.801 318.864 238.37 319.424C238.949 319.984 239.238 320.731 239.238 321.664C239.238 322.336 239.065 322.985 238.72 323.61C238.384 324.226 237.978 324.781 237.502 325.276C237.035 325.761 236.438 326.326 235.71 326.97L235.08 327.53H239.518V328.86H232.714V327.698L233.722 326.83ZM247.5 320.166H242.81V322.952C243.006 322.691 243.295 322.471 243.678 322.294C244.07 322.117 244.485 322.028 244.924 322.028C245.708 322.028 246.343 322.196 246.828 322.532C247.323 322.868 247.673 323.293 247.878 323.806C248.093 324.319 248.2 324.861 248.2 325.43C248.2 326.121 248.065 326.737 247.794 327.278C247.533 327.81 247.136 328.23 246.604 328.538C246.081 328.846 245.437 329 244.672 329C243.655 329 242.838 328.748 242.222 328.244C241.606 327.74 241.237 327.073 241.116 326.242H242.67C242.773 326.681 243.001 327.031 243.356 327.292C243.711 327.544 244.154 327.67 244.686 327.67C245.349 327.67 245.843 327.469 246.17 327.068C246.506 326.667 246.674 326.135 246.674 325.472C246.674 324.8 246.506 324.287 246.17 323.932C245.834 323.568 245.339 323.386 244.686 323.386C244.229 323.386 243.841 323.503 243.524 323.736C243.216 323.96 242.992 324.268 242.852 324.66H241.34V318.766H247.5V320.166ZM250.715 329.098C250.426 329.098 250.183 329 249.987 328.804C249.791 328.608 249.693 328.365 249.693 328.076C249.693 327.787 249.791 327.544 249.987 327.348C250.183 327.152 250.426 327.054 250.715 327.054C250.995 327.054 251.233 327.152 251.429 327.348C251.625 327.544 251.723 327.787 251.723 328.076C251.723 328.365 251.625 328.608 251.429 328.804C251.233 329 250.995 329.098 250.715 329.098ZM258.726 321.16C258.624 320.731 258.437 320.409 258.166 320.194C257.896 319.979 257.518 319.872 257.032 319.872C256.295 319.872 255.744 320.157 255.38 320.726C255.016 321.286 254.825 322.219 254.806 323.526C255.049 323.115 255.404 322.798 255.87 322.574C256.337 322.35 256.841 322.238 257.382 322.238C257.998 322.238 258.54 322.373 259.006 322.644C259.482 322.905 259.851 323.288 260.112 323.792C260.383 324.296 260.518 324.898 260.518 325.598C260.518 326.251 260.388 326.835 260.126 327.348C259.874 327.861 259.496 328.267 258.992 328.566C258.488 328.855 257.882 329 257.172 329C256.211 329 255.455 328.79 254.904 328.37C254.363 327.941 253.98 327.339 253.756 326.564C253.542 325.789 253.434 324.823 253.434 323.666C253.434 320.25 254.638 318.542 257.046 318.542C257.98 318.542 258.712 318.794 259.244 319.298C259.786 319.802 260.103 320.423 260.196 321.16H258.726ZM257.032 323.582C256.463 323.582 255.978 323.755 255.576 324.1C255.184 324.436 254.988 324.926 254.988 325.57C254.988 326.214 255.17 326.727 255.534 327.11C255.908 327.483 256.426 327.67 257.088 327.67C257.676 327.67 258.138 327.488 258.474 327.124C258.82 326.76 258.992 326.275 258.992 325.668C258.992 325.033 258.824 324.529 258.488 324.156C258.162 323.773 257.676 323.582 257.032 323.582Z" fill="#E4E4E4"/>
<path d="M296 193H422C433.046 193 442 201.954 442 213V345C442 356.046 433.046 365 422 365H296V193Z" fill="#565758"/>
<path d="M206.313 328.629H201.167V326.908H206.313C206.818 326.908 207.314 327.058 207.747 327.343C208.179 327.628 208.532 328.036 208.766 328.523C209.001 329.01 209.108 329.557 209.077 330.106C209.046 330.654 208.877 331.183 208.589 331.635C208.301 332.087 207.905 332.444 207.443 332.669C206.981 332.893 206.472 332.976 205.97 332.908C205.468 332.841 204.993 332.625 204.596 332.285C204.199 331.944 203.895 331.492 203.717 330.978L205.2 330.373C205.276 330.593 205.407 330.787 205.577 330.933C205.747 331.079 205.951 331.171 206.166 331.2C206.381 331.229 206.599 331.194 206.797 331.098C206.995 331.001 207.165 330.848 207.288 330.655C207.411 330.461 207.484 330.234 207.497 329.999C207.511 329.764 207.465 329.53 207.364 329.321C207.264 329.112 207.113 328.937 206.927 328.815C206.742 328.693 206.529 328.629 206.313 328.629ZM201.958 323.466H212.646C213.152 323.466 213.648 323.616 214.08 323.901C214.513 324.186 214.865 324.594 215.1 325.081C215.334 325.568 215.442 326.115 215.41 326.664C215.379 327.212 215.21 327.741 214.922 328.193C214.634 328.645 214.238 329.002 213.776 329.227C213.315 329.451 212.805 329.534 212.304 329.466C211.802 329.399 211.327 329.183 210.929 328.843C210.532 328.502 210.228 328.05 210.051 327.536L211.534 326.931C211.61 327.151 211.74 327.345 211.91 327.491C212.08 327.637 212.284 327.729 212.499 327.758C212.714 327.787 212.932 327.752 213.13 327.656C213.328 327.559 213.498 327.406 213.621 327.213C213.745 327.019 213.817 326.792 213.831 326.557C213.844 326.322 213.798 326.088 213.697 325.879C213.597 325.67 213.446 325.495 213.261 325.373C213.075 325.251 212.863 325.187 212.646 325.187H201.958C201.328 325.187 200.724 324.915 200.279 324.43C199.834 323.946 199.583 323.29 199.583 322.605C199.583 321.92 199.834 321.264 200.279 320.78C200.724 320.296 201.328 320.024 201.958 320.024H208.688C208.904 320.023 209.117 319.959 209.302 319.837C209.488 319.715 209.639 319.54 209.739 319.331C209.84 319.123 209.886 318.888 209.872 318.653C209.859 318.418 209.786 318.191 209.663 317.997C209.54 317.804 209.37 317.651 209.172 317.555C208.974 317.458 208.756 317.423 208.541 317.452C208.326 317.481 208.122 317.573 207.952 317.719C207.782 317.865 207.651 318.059 207.575 318.279L206.092 317.675C206.321 317.015 206.755 316.463 207.319 316.115C207.884 315.767 208.543 315.645 209.181 315.771C209.82 315.897 210.397 316.262 210.813 316.804C211.23 317.345 211.458 318.027 211.458 318.733C211.458 319.532 211.166 320.298 210.647 320.862C210.127 321.427 209.422 321.745 208.688 321.745H201.958C201.748 321.745 201.547 321.835 201.399 321.997C201.25 322.158 201.167 322.377 201.167 322.605C201.167 322.833 201.25 323.052 201.399 323.214C201.547 323.375 201.748 323.466 201.958 323.466Z" fill="#F5F5F5"/>
<g opacity="0.85">
<rect x="129" y="386" width="363" height="173" rx="20" fill="#494A4B"/>
<path fill-rule="evenodd" clip-rule="evenodd" d="M159 426.5C159 423.715 160.106 421.045 162.075 419.075C164.045 417.106 166.715 416 169.5 416C172.285 416 174.955 417.106 176.925 419.075C178.894 421.045 180 423.715 180 426.5C180 429.285 178.894 431.955 176.925 433.925C174.955 435.894 172.285 437 169.5 437C166.715 437 164.045 435.894 162.075 433.925C160.106 431.955 159 429.285 159 426.5V426.5ZM168.901 430.994L174.946 423.437L173.854 422.563L168.699 429.005L165.048 425.962L164.152 427.038L168.901 430.995V430.994Z" fill="#B1FFF1"/>
<path d="M205.04 419.96V429.52C205.04 431 204.62 432.14 203.78 432.94C202.953 433.74 201.833 434.14 200.42 434.14C198.94 434.14 197.753 433.72 196.86 432.88C195.967 432.04 195.52 430.847 195.52 429.3H198.92C198.92 429.887 199.04 430.333 199.28 430.64C199.52 430.933 199.867 431.08 200.32 431.08C200.733 431.08 201.053 430.947 201.28 430.68C201.507 430.413 201.62 430.027 201.62 429.52V419.96H205.04ZM207.123 428.4C207.123 427.253 207.336 426.247 207.763 425.38C208.203 424.513 208.796 423.847 209.543 423.38C210.289 422.913 211.123 422.68 212.043 422.68C212.829 422.68 213.516 422.84 214.103 423.16C214.703 423.48 215.163 423.9 215.483 424.42V422.84H218.903V434H215.483V432.42C215.149 432.94 214.683 433.36 214.083 433.68C213.496 434 212.809 434.16 212.023 434.16C211.116 434.16 210.289 433.927 209.543 433.46C208.796 432.98 208.203 432.307 207.763 431.44C207.336 430.56 207.123 429.547 207.123 428.4ZM215.483 428.42C215.483 427.567 215.243 426.893 214.763 426.4C214.296 425.907 213.723 425.66 213.043 425.66C212.363 425.66 211.783 425.907 211.303 426.4C210.836 426.88 210.603 427.547 210.603 428.4C210.603 429.253 210.836 429.933 211.303 430.44C211.783 430.933 212.363 431.18 213.043 431.18C213.723 431.18 214.296 430.933 214.763 430.44C215.243 429.947 215.483 429.273 215.483 428.42ZM223.097 421.68C222.497 421.68 222.003 421.507 221.617 421.16C221.243 420.8 221.057 420.36 221.057 419.84C221.057 419.307 221.243 418.867 221.617 418.52C222.003 418.16 222.497 417.98 223.097 417.98C223.683 417.98 224.163 418.16 224.537 418.52C224.923 418.867 225.117 419.307 225.117 419.84C225.117 420.36 224.923 420.8 224.537 421.16C224.163 421.507 223.683 421.68 223.097 421.68ZM224.797 422.84V434H221.377V422.84H224.797ZM230.695 424.42C231.028 423.9 231.488 423.48 232.075 423.16C232.662 422.84 233.348 422.68 234.135 422.68C235.055 422.68 235.888 422.913 236.635 423.38C237.382 423.847 237.968 424.513 238.395 425.38C238.835 426.247 239.055 427.253 239.055 428.4C239.055 429.547 238.835 430.56 238.395 431.44C237.968 432.307 237.382 432.98 236.635 433.46C235.888 433.927 235.055 434.16 234.135 434.16C233.362 434.16 232.675 434 232.075 433.68C231.488 433.36 231.028 432.947 230.695 432.44V439.32H227.275V422.84H230.695V424.42ZM235.575 428.4C235.575 427.547 235.335 426.88 234.855 426.4C234.388 425.907 233.808 425.66 233.115 425.66C232.435 425.66 231.855 425.907 231.375 426.4C230.908 426.893 230.675 427.567 230.675 428.42C230.675 429.273 230.908 429.947 231.375 430.44C231.855 430.933 232.435 431.18 233.115 431.18C233.795 431.18 234.375 430.933 234.855 430.44C235.335 429.933 235.575 429.253 235.575 428.4ZM251.869 422.84V434H248.449V432.48C248.103 432.973 247.629 433.373 247.029 433.68C246.443 433.973 245.789 434.12 245.069 434.12C244.216 434.12 243.463 433.933 242.809 433.56C242.156 433.173 241.649 432.62 241.289 431.9C240.929 431.18 240.749 430.333 240.749 429.36V422.84H244.149V428.9C244.149 429.647 244.343 430.227 244.729 430.64C245.116 431.053 245.636 431.26 246.289 431.26C246.956 431.26 247.483 431.053 247.869 430.64C248.256 430.227 248.449 429.647 248.449 428.9V422.84H251.869ZM257.746 424.7C258.146 424.087 258.646 423.607 259.246 423.26C259.846 422.9 260.513 422.72 261.246 422.72V426.34H260.306C259.453 426.34 258.813 426.527 258.386 426.9C257.959 427.26 257.746 427.9 257.746 428.82V434H254.326V422.84H257.746V424.7Z" fill="white"/>
<path d="M161.04 480.2V473.72L173.32 456.2H181.92V473.4H185V480.2H181.92V485H174V480.2H161.04ZM174.6 465.04L169.08 473.4H174.6V465.04ZM188.576 464.48C188.683 461.467 189.616 459.16 191.376 457.56C193.136 455.933 195.59 455.12 198.736 455.12C200.79 455.12 202.536 455.48 203.976 456.2C205.443 456.893 206.55 457.853 207.296 459.08C208.043 460.28 208.416 461.64 208.416 463.16C208.416 464.973 207.976 466.427 207.096 467.52C206.216 468.587 205.216 469.307 204.096 469.68V469.84C207.323 471.04 208.936 473.333 208.936 476.72C208.936 478.4 208.55 479.88 207.776 481.16C207.003 482.44 205.883 483.44 204.416 484.16C202.95 484.88 201.203 485.24 199.176 485.24C195.843 485.24 193.203 484.44 191.256 482.84C189.336 481.213 188.336 478.733 188.256 475.4H195.896C195.843 476.467 196.07 477.293 196.576 477.88C197.083 478.467 197.843 478.76 198.856 478.76C199.63 478.76 200.23 478.52 200.656 478.04C201.11 477.56 201.336 476.92 201.336 476.12C201.336 475.107 201.003 474.36 200.336 473.88C199.696 473.4 198.643 473.16 197.176 473.16H195.776V466.8H197.136C198.15 466.827 199.003 466.667 199.696 466.32C200.416 465.947 200.776 465.213 200.776 464.12C200.776 463.293 200.576 462.68 200.176 462.28C199.776 461.853 199.23 461.64 198.536 461.64C197.763 461.64 197.19 461.92 196.816 462.48C196.47 463.013 196.27 463.68 196.216 464.48H188.576ZM217.11 485.32C215.724 485.32 214.604 484.947 213.75 484.2C212.924 483.427 212.51 482.453 212.51 481.28C212.51 480.107 212.924 479.133 213.75 478.36C214.604 477.587 215.724 477.2 217.11 477.2C218.47 477.2 219.564 477.587 220.39 478.36C221.244 479.133 221.67 480.107 221.67 481.28C221.67 482.427 221.244 483.387 220.39 484.16C219.564 484.933 218.47 485.32 217.11 485.32ZM224.422 478.72C227.008 476.693 229.128 474.947 230.782 473.48C232.435 472.013 233.822 470.507 234.942 468.96C236.062 467.387 236.622 465.893 236.622 464.48C236.622 463.627 236.422 462.96 236.022 462.48C235.648 462 235.088 461.76 234.342 461.76C233.568 461.76 232.968 462.093 232.542 462.76C232.115 463.4 231.915 464.347 231.942 465.6H224.342C224.422 463.227 224.942 461.267 225.902 459.72C226.862 458.147 228.115 457 229.662 456.28C231.208 455.533 232.928 455.16 234.822 455.16C238.102 455.16 240.542 455.973 242.142 457.6C243.742 459.227 244.542 461.333 244.542 463.92C244.542 466.693 243.608 469.293 241.742 471.72C239.902 474.147 237.595 476.32 234.822 478.24H244.822V484.6H224.422V478.72ZM254.811 470.84C254.811 468.067 255.385 465.6 256.531 463.44C257.705 461.253 259.358 459.56 261.491 458.36C263.625 457.133 266.078 456.52 268.851 456.52C272.371 456.52 275.331 457.467 277.731 459.36C280.131 461.227 281.678 463.773 282.371 467H273.931C273.425 465.933 272.718 465.12 271.811 464.56C270.931 464 269.905 463.72 268.731 463.72C266.918 463.72 265.465 464.373 264.371 465.68C263.305 466.96 262.771 468.68 262.771 470.84C262.771 473.027 263.305 474.773 264.371 476.08C265.465 477.36 266.918 478 268.731 478C269.905 478 270.931 477.72 271.811 477.16C272.718 476.6 273.425 475.787 273.931 474.72H282.371C281.678 477.947 280.131 480.507 277.731 482.4C275.331 484.267 272.371 485.2 268.851 485.2C266.078 485.2 263.625 484.6 261.491 483.4C259.358 482.173 257.705 480.48 256.531 478.32C255.385 476.133 254.811 473.64 254.811 470.84Z" fill="#F5F5F5"/>
<path d="M174.438 515.125C173.826 515.141 173.232 514.914 172.787 514.494C172.342 514.074 172.081 513.494 172.062 512.882C172.074 512.446 172.208 512.021 172.45 511.657L173.945 509.433C174.002 509.357 174.077 509.295 174.162 509.252C174.248 509.209 174.342 509.187 174.438 509.187C174.533 509.187 174.627 509.209 174.713 509.252C174.798 509.295 174.873 509.357 174.93 509.433L176.406 511.628C176.658 511.999 176.799 512.434 176.812 512.882C176.794 513.494 176.533 514.074 176.088 514.494C175.643 514.914 175.049 515.141 174.438 515.125ZM174.438 510.828L173.454 512.29C173.331 512.464 173.261 512.67 173.25 512.882C173.284 513.173 173.424 513.441 173.643 513.636C173.862 513.83 174.145 513.937 174.438 513.937C174.73 513.937 175.013 513.83 175.232 513.636C175.451 513.441 175.591 513.173 175.625 512.882C175.612 512.658 175.534 512.442 175.402 512.261L174.438 510.828Z" fill="#F5F5F5"/>
<path d="M172.953 525.812H164.047C163.09 525.814 162.168 525.459 161.458 524.818C160.748 524.177 160.302 523.295 160.205 522.343C160.109 521.392 160.37 520.438 160.937 519.668C161.504 518.898 162.338 518.366 163.275 518.176C163.528 516.977 164.185 515.902 165.136 515.131C166.088 514.36 167.275 513.939 168.5 513.939C169.725 513.939 170.912 514.36 171.864 515.131C172.815 515.902 173.472 516.977 173.725 518.176C174.662 518.366 175.496 518.898 176.063 519.668C176.63 520.438 176.891 521.392 176.795 522.343C176.699 523.295 176.252 524.177 175.542 524.818C174.832 525.459 173.91 525.814 172.953 525.812ZM168.5 515.125C167.486 515.126 166.508 515.497 165.749 516.169C164.99 516.841 164.503 517.767 164.379 518.774L164.319 519.256L163.836 519.294C163.146 519.346 162.504 519.664 162.045 520.18C161.585 520.696 161.343 521.371 161.371 522.061C161.398 522.752 161.692 523.405 162.191 523.883C162.691 524.361 163.356 524.627 164.047 524.625H172.953C173.644 524.627 174.309 524.361 174.809 523.883C175.308 523.405 175.602 522.752 175.629 522.061C175.657 521.371 175.415 520.696 174.955 520.18C174.496 519.664 173.854 519.346 173.165 519.294L172.681 519.256L172.622 518.774C172.498 517.767 172.01 516.841 171.251 516.169C170.492 515.497 169.514 515.126 168.5 515.125Z" fill="#F5F5F5"/>
<path d="M186 510C186 507.239 188.239 505 191 505H234C236.761 505 239 507.239 239 510V524C239 526.761 236.761 529 234 529H191C188.239 529 186 526.761 186 524V510Z" fill="#636465"/>
<rect x="271" y="504" width="52" height="24" rx="5" fill="#636465"/>
<path d="M205.308 514.026L201.416 523H199.806L203.74 514.194H198.56V512.836H205.308V514.026ZM206.674 517.764C206.674 516.149 206.945 514.889 207.486 513.984C208.037 513.069 208.979 512.612 210.314 512.612C211.649 512.612 212.587 513.069 213.128 513.984C213.679 514.889 213.954 516.149 213.954 517.764C213.954 519.397 213.679 520.676 213.128 521.6C212.587 522.515 211.649 522.972 210.314 522.972C208.979 522.972 208.037 522.515 207.486 521.6C206.945 520.676 206.674 519.397 206.674 517.764ZM212.386 517.764C212.386 517.008 212.335 516.369 212.232 515.846C212.139 515.323 211.943 514.899 211.644 514.572C211.345 514.236 210.902 514.068 210.314 514.068C209.726 514.068 209.283 514.236 208.984 514.572C208.685 514.899 208.485 515.323 208.382 515.846C208.289 516.369 208.242 517.008 208.242 517.764C208.242 518.548 208.289 519.206 208.382 519.738C208.475 520.27 208.671 520.699 208.97 521.026C209.278 521.353 209.726 521.516 210.314 521.516C210.902 521.516 211.345 521.353 211.644 521.026C211.952 520.699 212.153 520.27 212.246 519.738C212.339 519.206 212.386 518.548 212.386 517.764ZM215.391 515.258C215.391 514.577 215.587 514.045 215.979 513.662C216.38 513.27 216.893 513.074 217.519 513.074C218.144 513.074 218.653 513.27 219.045 513.662C219.446 514.045 219.647 514.577 219.647 515.258C219.647 515.939 219.446 516.476 219.045 516.868C218.653 517.26 218.144 517.456 217.519 517.456C216.893 517.456 216.38 517.26 215.979 516.868C215.587 516.476 215.391 515.939 215.391 515.258ZM223.931 513.256L218.345 523H216.777L222.363 513.256H223.931ZM217.519 514.04C216.931 514.04 216.637 514.446 216.637 515.258C216.637 516.079 216.931 516.49 217.519 516.49C217.799 516.49 218.013 516.392 218.163 516.196C218.321 515.991 218.401 515.678 218.401 515.258C218.401 514.446 218.107 514.04 217.519 514.04ZM221.089 520.984C221.089 520.303 221.285 519.771 221.677 519.388C222.078 518.996 222.591 518.8 223.217 518.8C223.833 518.8 224.337 518.996 224.729 519.388C225.13 519.771 225.331 520.303 225.331 520.984C225.331 521.665 225.13 522.202 224.729 522.594C224.337 522.986 223.833 523.182 223.217 523.182C222.591 523.182 222.078 522.986 221.677 522.594C221.285 522.202 221.089 521.665 221.089 520.984ZM223.203 519.766C222.615 519.766 222.321 520.172 222.321 520.984C222.321 521.796 222.615 522.202 223.203 522.202C223.791 522.202 224.085 521.796 224.085 520.984C224.085 520.172 223.791 519.766 223.203 519.766Z" fill="#E4E4E4"/>
<path d="M284.63 512.25V510.794H287.542V521H285.932V512.25H284.63ZM296.203 512.026L292.311 521H290.701L294.635 512.194H289.455V510.836H296.203V512.026ZM298.423 521.098C298.133 521.098 297.891 521 297.695 520.804C297.499 520.608 297.401 520.365 297.401 520.076C297.401 519.787 297.499 519.544 297.695 519.348C297.891 519.152 298.133 519.054 298.423 519.054C298.703 519.054 298.941 519.152 299.137 519.348C299.333 519.544 299.431 519.787 299.431 520.076C299.431 520.365 299.333 520.608 299.137 520.804C298.941 521 298.703 521.098 298.423 521.098ZM302.933 518.228C303.027 518.695 303.227 519.049 303.535 519.292C303.843 519.535 304.259 519.656 304.781 519.656C305.444 519.656 305.929 519.395 306.237 518.872C306.545 518.349 306.699 517.458 306.699 516.198C306.475 516.515 306.158 516.763 305.747 516.94C305.346 517.108 304.907 517.192 304.431 517.192C303.825 517.192 303.274 517.071 302.779 516.828C302.285 516.576 301.893 516.207 301.603 515.722C301.323 515.227 301.183 514.63 301.183 513.93C301.183 512.903 301.482 512.087 302.079 511.48C302.686 510.864 303.517 510.556 304.571 510.556C305.841 510.556 306.741 510.981 307.273 511.83C307.815 512.67 308.085 513.963 308.085 515.708C308.085 516.912 307.983 517.897 307.777 518.662C307.581 519.427 307.236 520.006 306.741 520.398C306.247 520.79 305.561 520.986 304.683 520.986C303.685 520.986 302.915 520.725 302.373 520.202C301.832 519.679 301.529 519.021 301.463 518.228H302.933ZM304.711 515.848C305.271 515.848 305.71 515.675 306.027 515.33C306.354 514.975 306.517 514.509 306.517 513.93C306.517 513.286 306.345 512.787 305.999 512.432C305.663 512.068 305.201 511.886 304.613 511.886C304.025 511.886 303.559 512.073 303.213 512.446C302.877 512.81 302.709 513.291 302.709 513.888C302.709 514.457 302.873 514.929 303.199 515.302C303.535 515.666 304.039 515.848 304.711 515.848Z" fill="#E4E4E4"/>
<path d="M346 386H472C483.046 386 492 394.954 492 406V538C492 549.046 483.046 558 472 558H346V386Z" fill="#565758"/>
<g clip-path="url(#clip0_20_23)">
<path d="M256.313 521.629H251.167V519.908H256.313C256.818 519.908 257.314 520.058 257.747 520.343C258.179 520.628 258.532 521.036 258.766 521.523C259.001 522.01 259.108 522.557 259.077 523.106C259.046 523.654 258.877 524.183 258.589 524.635C258.301 525.087 257.905 525.444 257.443 525.669C256.981 525.893 256.472 525.976 255.97 525.908C255.468 525.841 254.993 525.625 254.596 525.285C254.199 524.944 253.895 524.492 253.717 523.978L255.2 523.373C255.276 523.593 255.407 523.787 255.577 523.933C255.747 524.079 255.951 524.171 256.166 524.2C256.381 524.229 256.599 524.194 256.797 524.098C256.995 524.001 257.165 523.848 257.288 523.655C257.411 523.461 257.484 523.234 257.497 522.999C257.511 522.764 257.465 522.53 257.364 522.321C257.264 522.112 257.113 521.937 256.927 521.815C256.742 521.693 256.529 521.629 256.313 521.629ZM251.958 516.466H262.646C263.152 516.466 263.648 516.616 264.08 516.901C264.513 517.186 264.865 517.594 265.1 518.081C265.334 518.568 265.442 519.115 265.41 519.664C265.379 520.212 265.21 520.741 264.922 521.193C264.634 521.645 264.238 522.002 263.776 522.227C263.315 522.451 262.805 522.534 262.304 522.466C261.802 522.399 261.327 522.183 260.929 521.843C260.532 521.502 260.228 521.05 260.051 520.536L261.534 519.931C261.61 520.151 261.74 520.345 261.91 520.491C262.08 520.637 262.284 520.729 262.499 520.758C262.714 520.787 262.932 520.752 263.13 520.656C263.328 520.559 263.498 520.406 263.621 520.213C263.745 520.019 263.817 519.792 263.831 519.557C263.844 519.322 263.798 519.088 263.697 518.879C263.597 518.67 263.446 518.495 263.261 518.373C263.075 518.251 262.863 518.187 262.646 518.187H251.958C251.328 518.187 250.724 517.915 250.279 517.43C249.834 516.946 249.583 516.29 249.583 515.605C249.583 514.92 249.834 514.264 250.279 513.78C250.724 513.296 251.328 513.024 251.958 513.024H258.688C258.904 513.023 259.117 512.959 259.302 512.837C259.488 512.715 259.639 512.54 259.739 512.331C259.84 512.123 259.886 511.888 259.872 511.653C259.859 511.418 259.786 511.191 259.663 510.997C259.54 510.804 259.37 510.651 259.172 510.554C258.974 510.458 258.756 510.423 258.541 510.452C258.326 510.481 258.122 510.573 257.952 510.719C257.782 510.865 257.651 511.059 257.575 511.279L256.092 510.675C256.321 510.015 256.755 509.463 257.319 509.115C257.884 508.767 258.543 508.645 259.181 508.771C259.82 508.897 260.397 509.262 260.813 509.804C261.23 510.345 261.458 511.027 261.458 511.733C261.458 512.532 261.166 513.298 260.647 513.862C260.127 514.427 259.422 514.745 258.688 514.745H251.958C251.748 514.745 251.547 514.835 251.399 514.997C251.25 515.158 251.167 515.377 251.167 515.605C251.167 515.833 251.25 516.052 251.399 516.214C251.547 516.375 251.748 516.466 251.958 516.466Z" fill="#F5F5F5"/>
</g>
</g>
<defs>
<clipPath id="clip0_20_23">
<rect width="19" height="20.6522" fill="white" transform="translate(248 507)"/>
</clipPath>
</defs>
</svg>
