<svg width="19" height="19" viewBox="0 0 19 19" fill="none" xmlns="http://www.w3.org/2000/svg">
<path d="M15.4375 7.125C14.8255 7.14131 14.232 6.91448 13.7869 6.49417C13.3418 6.07387 13.0813 5.49432 13.0625 4.88241C13.0736 4.44551 13.208 4.02066 13.4502 3.65691L14.9447 1.43331C15.0021 1.35686 15.0765 1.29481 15.1621 1.25208C15.2476 1.20935 15.3419 1.1871 15.4375 1.1871C15.5331 1.1871 15.6274 1.20935 15.7129 1.25208C15.7985 1.29481 15.8729 1.35686 15.9303 1.43331L17.4058 3.62781C17.658 3.99879 17.7991 4.43403 17.8125 4.88241C17.7937 5.49432 17.5332 6.07387 17.0881 6.49417C16.643 6.91448 16.0495 7.14131 15.4375 7.125ZM15.4375 2.82803L14.4542 4.29044C14.3314 4.46438 14.2605 4.6697 14.25 4.88241C14.2845 5.17315 14.4244 5.44114 14.6433 5.6356C14.8621 5.83006 15.1447 5.93747 15.4375 5.93747C15.7303 5.93747 16.0129 5.83006 16.2317 5.6356C16.4506 5.44114 16.5905 5.17315 16.625 4.88241C16.6117 4.65817 16.5344 4.44244 16.4023 4.26075L15.4375 2.82803Z" fill="#F5F5F5"/>
<path d="M13.9532 17.8125H5.04692C4.09042 17.8135 3.16766 17.4591 2.45778 16.818C1.7479 16.177 1.30154 15.295 1.20535 14.3434C1.10916 13.3917 1.37001 12.4383 1.93726 11.6681C2.50451 10.898 3.33768 10.3661 4.27504 10.1757C4.52805 8.97737 5.18526 7.90243 6.13653 7.13103C7.0878 6.35964 8.27531 5.93866 9.50004 5.93866C10.7248 5.93866 11.9123 6.35964 12.8636 7.13103C13.8148 7.90243 14.472 8.97737 14.725 10.1757C15.6624 10.3661 16.4956 10.898 17.0628 11.6681C17.6301 12.4383 17.8909 13.3917 17.7947 14.3434C17.6985 15.295 17.2522 16.177 16.5423 16.818C15.8324 17.4591 14.9097 17.8135 13.9532 17.8125ZM9.50004 7.12499C8.48633 7.12595 7.50791 7.49735 6.7489 8.16931C5.9899 8.84127 5.50264 9.76746 5.37882 10.7736L5.31945 11.2557L4.83554 11.2937C4.14635 11.3462 3.50437 11.6639 3.04468 12.1801C2.58499 12.6963 2.34343 13.3706 2.37081 14.0613C2.39819 14.7519 2.69239 15.405 3.1915 15.8832C3.69061 16.3613 4.35573 16.6272 5.04692 16.625H13.9532C14.6444 16.6272 15.3095 16.3613 15.8086 15.8832C16.3077 15.405 16.6019 14.7519 16.6293 14.0613C16.6567 13.3706 16.4151 12.6963 15.9554 12.1801C15.4957 11.6639 14.8537 11.3462 14.1645 11.2937L13.6806 11.2557L13.6219 10.7736C13.4978 9.76746 13.0104 8.84134 12.2513 8.16941C11.4922 7.49748 10.5138 7.12606 9.50004 7.12499Z" fill="#F5F5F5"/>
</svg>
