<svg width="19" height="21" viewBox="0 0 19 21" fill="none" xmlns="http://www.w3.org/2000/svg">
<path d="M8.31254 14.6286H3.16671V12.9076H8.31254C8.81822 12.9078 9.3142 13.0584 9.74676 13.3431C10.1793 13.6278 10.5319 14.0358 10.7664 14.5227C11.0009 15.0097 11.1084 15.5571 11.0771 16.1057C11.0458 16.6543 10.877 17.1832 10.5889 17.6349C10.3009 18.0867 9.90463 18.4442 9.44304 18.6686C8.98144 18.8931 8.47214 18.9759 7.97032 18.9082C7.46849 18.8405 6.99328 18.6249 6.59616 18.2846C6.19904 17.9443 5.89517 17.4924 5.71746 16.9778L7.20025 16.3729C7.27639 16.5934 7.40661 16.7871 7.57679 16.933C7.74697 17.0788 7.95063 17.1713 8.1657 17.2003C8.38076 17.2293 8.59904 17.1938 8.79688 17.0977C8.99471 17.0015 9.16456 16.8483 9.28802 16.6547C9.41148 16.4611 9.48384 16.2345 9.49727 15.9993C9.51069 15.7642 9.46467 15.5296 9.36418 15.3209C9.26369 15.1122 9.11258 14.9373 8.9272 14.8153C8.74183 14.6933 8.52926 14.6287 8.31254 14.6286ZM3.95837 9.46558H14.6459C15.1516 9.46578 15.6475 9.61639 16.0801 9.90109C16.5126 10.1858 16.8653 10.5937 17.0998 11.0807C17.3343 11.5677 17.4417 12.1151 17.4104 12.6637C17.3791 13.2123 17.2103 13.7411 16.9223 14.1929C16.6342 14.6447 16.238 15.0021 15.7764 15.2266C15.3148 15.451 14.8055 15.5339 14.3037 15.4662C13.8018 15.3985 13.3266 15.1828 12.9295 14.8426C12.5324 14.5023 12.2285 14.0504 12.0508 13.5358L13.5336 12.9308C13.6097 13.1514 13.7399 13.3451 13.9101 13.4909C14.0803 13.6368 14.284 13.7292 14.499 13.7583C14.7141 13.7873 14.9324 13.7518 15.1302 13.6556C15.328 13.5595 15.4979 13.4063 15.6214 13.2127C15.7448 13.0191 15.8172 12.7924 15.8306 12.5573C15.844 12.3222 15.798 12.0876 15.6975 11.8789C15.597 11.6702 15.4459 11.4953 15.2605 11.3733C15.0752 11.2513 14.8626 11.1867 14.6459 11.1866H3.95837C3.32849 11.1866 2.72439 10.9146 2.279 10.4305C1.8336 9.94636 1.58337 9.28974 1.58337 8.60508C1.58337 7.92041 1.8336 7.26379 2.279 6.77966C2.72439 6.29553 3.32849 6.02355 3.95837 6.02355H10.6875C10.9043 6.02346 11.1168 5.95889 11.3022 5.83687C11.4876 5.71484 11.6387 5.54 11.7392 5.33128C11.8397 5.12257 11.8857 4.88795 11.8723 4.65283C11.8588 4.41772 11.7865 4.19108 11.663 3.99748C11.5396 3.80388 11.3697 3.65069 11.1719 3.55451C10.974 3.45833 10.7558 3.42284 10.5407 3.45187C10.3256 3.4809 10.122 3.57336 9.95179 3.71921C9.78161 3.86506 9.65139 4.05876 9.57525 4.27931L8.09246 3.67523C8.32083 3.01505 8.75506 2.46289 9.3195 2.11497C9.88393 1.76704 10.5428 1.64539 11.1812 1.77123C11.8197 1.89706 12.3973 2.2624 12.8134 2.80358C13.2296 3.34477 13.4578 4.02749 13.4584 4.73279C13.4584 5.53157 13.1664 6.29762 12.6468 6.86244C12.1272 7.42726 11.4224 7.74457 10.6875 7.74457H3.95837C3.74841 7.74457 3.54705 7.83523 3.39858 7.99661C3.25012 8.15798 3.16671 8.37686 3.16671 8.60508C3.16671 8.8333 3.25012 9.05217 3.39858 9.21355C3.54705 9.37492 3.74841 9.46558 3.95837 9.46558Z" fill="#F5F5F5"/>
</svg>
